<svg width="1284" height="689" viewBox="0 0 1284 689" fill="none" xmlns="http://www.w3.org/2000/svg">
<path opacity="0.5" d="M1245.75 683.533V683.537C1245.65 683.716 1245.56 683.887 1245.46 684.066C1244.75 685.332 1244.02 686.616 1243.28 687.904L100.393 687.559C100.393 687.559 99.2793 686.319 97.2885 683.939C97.175 683.804 97.0615 683.668 96.9436 683.524C91.8399 677.394 81.5627 664.495 69.5347 646.308C69.5347 646.304 69.5303 646.3 69.526 646.291C37.6115 598.01 -6.61032 512.518 0.829115 417.625C2.9291 390.841 9.14172 363.306 20.9121 335.648C56.6117 251.763 163.121 195.216 259.07 194.081C296.206 193.636 331.77 201.5 361.022 219.293C366.213 222.446 372.735 224.882 380.323 226.537C386.719 227.939 393.87 228.791 401.633 229.061C463.947 231.258 565.296 196.133 625.405 107.772C657.324 60.8498 706.326 30.1313 762.646 14.1324C765.27 13.3901 767.916 12.674 770.566 11.9972C783.375 8.7092 796.53 6.15915 809.924 4.33832C812.334 4.01083 814.757 3.70517 817.184 3.43008C876.617 -3.46902 940.276 3.66587 998.66 23.3894C1006.35 25.9831 1013.95 28.7996 1021.44 31.8343C1131.31 76.3379 1216.8 167.209 1209.28 294.096C1208.98 299.113 1208.54 304.187 1207.94 309.318C1206.82 319.09 1205.14 329.063 1202.9 339.237C1201.58 345.232 1200.06 351.298 1198.33 357.424C1153.05 518.273 1334.09 525.535 1245.75 683.533Z" fill="#DCEAFF"/>
<path d="M1245.75 683.533V683.537L356.167 683.629L363.837 417.725V345.481H397.11V289.057H463.488V336.949H483.759V248.374H488.168V242.183H488.959V248.374H504.968V242.183H505.763V248.374H528.426V242.183H529.221V248.374H543.488V242.183H544.274V248.374H550.133V331.059H572.539V317.684L598.961 317.802V296.131H604.274V291.847H604.981V296.131H625.387V296.14H629.47V291.843H630.172V296.14H635.093V339.229H666.549V355.088H684.038V345.879H700.258V309.318H708.348V292.262H709.57V309.318H728.95V277.351H730.854V309.318H743.676V308.872H743.654V304.816H743.676V300.978H743.654V294.59H743.676V290.511H743.654V284.119H743.676V280.04H743.654V273.648H743.676V269.238H743.654V262.854H743.676V257.238H743.654V250.855H743.676V246.619H747.496V241.842H748.108V246.623H776.416V241.842H777.023V246.623H782.192V280.045L785.824 280.067V280.045H785.794V273.652H785.824V269.242H785.794V262.858H785.824V258.465H785.794V252.073H785.824V252.055H820.149V252.073H826.047C826.348 252.243 826.658 252.413 826.968 252.584V295.201H833.286V289.057H905.737V336.949H927.863V248.374H932.67V242.183H933.539V248.374H951.007V242.183H951.871V248.374H976.612V242.183H977.477V248.374H993.05V242.183H993.91V248.374H1000.31V331.059H1024.76V317.684L1053.6 317.802V296.135H1059.41V291.847H1060.18V296.135H1082.44V296.14H1086.9V291.843H1087.66V296.14H1093.03V339.233H1127.36V355.088H1146.45V345.879H1164.16V309.313H1172.98V292.262H1174.32V309.313H1195.48V277.351H1197.55V309.313H1207.96C1206.83 319.086 1205.16 329.059 1202.92 339.233C1201.59 345.228 1200.07 351.293 1198.35 357.419C1153.05 518.273 1334.09 525.535 1245.75 683.533Z" fill="#DFEBFA"/>
<path d="M1021.44 31.8343V683.528H998.665V23.3894C1006.36 25.9831 1013.96 28.7995 1021.44 31.8343Z" fill="#AFCDFB"/>
<path d="M380.327 226.542V683.948H97.2885C97.175 683.812 97.0615 683.677 96.9436 683.533C91.8399 677.402 81.5627 664.504 69.5347 646.317C69.5347 646.313 69.5303 646.308 69.526 646.3C37.6115 598.019 -6.61032 512.527 0.829115 417.634C2.9291 390.85 9.14172 363.314 20.9121 335.657C56.6117 251.772 163.121 195.225 259.07 194.09C295.861 194.496 330.928 202.439 360.048 219.302C365.501 222.446 372.355 224.883 380.327 226.542Z" fill="#CEE1FD"/>
<path d="M817.193 3.42969V83.6863C817.193 89.9435 815.665 95.048 813.805 95.048H813.321C811.456 95.048 809.937 89.9435 809.937 83.6863V4.33792C812.343 4.01044 814.766 3.70478 817.193 3.42969Z" fill="#9FC1F4"/>
<path d="M811.67 75.7397C785.222 75.7397 763.786 98.4107 763.786 126.383H859.555C859.555 98.4151 838.114 75.7397 811.67 75.7397Z" fill="#B8C1C9"/>
<path d="M815.486 76.3596C814.111 76.0583 812.705 75.9011 811.282 75.9011C794.05 75.9011 780.083 98.5022 780.083 126.382H788.497C788.492 100.808 800.245 79.6825 815.486 76.3596Z" fill="#EAEAEA"/>
<path d="M1127.03 608.839C1127.03 608.839 1114.29 593.971 1126.24 584.526C1126.24 584.526 1134.98 579.239 1142.1 579.666C1142.1 579.666 1132.01 596.591 1135.27 598.277C1138.54 599.962 1145.16 578.605 1145.16 578.605C1145.16 578.605 1165.03 576.675 1171.43 579.754C1171.43 579.754 1154.43 593.661 1158.01 594.491C1161.59 595.32 1179.95 581.666 1179.95 581.666C1179.95 581.666 1198.45 584.815 1197.46 596.102C1196.47 607.389 1190.1 610.874 1187.3 610.573C1184.49 610.271 1168.1 604.014 1167.75 606.311C1167.4 608.608 1177.26 616.109 1184.17 616.463C1184.17 616.463 1171.12 630.851 1162.45 626.698C1153.79 622.546 1153.05 615.965 1147.65 613.498C1142.24 611.031 1137.63 611.035 1139.86 613.555C1142.09 616.074 1151.87 618.52 1154.96 623.987C1158.05 629.453 1160.83 633.139 1151.86 631.79C1142.89 630.44 1128.31 623.877 1127.67 616.363C1127.03 608.839 1127.03 608.839 1127.03 608.839Z" fill="#77A4E5"/>
<path d="M1188.37 596.403C1188.37 596.403 1138.12 594.464 1127.03 608.839C1127.03 608.839 1124.58 616.188 1117.02 622.882L1115.84 626.091C1115.84 626.091 1124.55 616.908 1127.67 616.354C1127.67 616.354 1122.79 598.547 1188.37 596.403Z" fill="#77A4E5"/>
<path d="M1117.02 622.882C1117.02 622.882 1106.24 630.859 1105.49 645.112L1107.44 645.286C1107.44 645.286 1110.89 630.549 1117.11 624.786C1123.34 619.022 1117.02 622.882 1117.02 622.882Z" fill="#77A4E5"/>
<path d="M1082.47 590.137C1082.47 590.137 1102.74 578.785 1093.28 563.375C1093.28 563.375 1085.72 553.913 1077.6 551.481C1077.6 551.481 1081.93 574.457 1077.6 574.999C1073.28 575.54 1074.63 549.048 1074.63 549.048C1074.63 549.048 1053.28 538.774 1044.9 539.586C1044.9 539.586 1058.15 562.021 1053.82 561.484C1049.49 560.947 1034.63 538.237 1034.63 538.237C1034.63 538.237 1012.73 534.181 1009.22 547.158C1005.71 560.135 1011.38 566.619 1014.63 567.432C1017.87 568.244 1038.68 567.973 1038.14 570.676C1037.6 573.379 1023.55 577.706 1015.71 575.274C1015.71 575.274 1024.36 596.63 1035.71 595.548C1047.06 594.465 1050.57 587.439 1057.6 586.897C1064.63 586.356 1069.77 588.251 1066.25 590.142C1062.74 592.032 1050.85 590.762 1045.17 595.587C1039.49 600.412 1034.9 603.385 1045.44 605.551C1055.98 607.713 1074.9 606.363 1078.69 598.25C1082.47 590.137 1082.47 590.137 1082.47 590.137Z" fill="#77A4E5"/>
<path d="M1019.23 551.21C1019.23 551.21 1075.99 569.593 1082.48 590.137C1082.48 590.137 1082.21 599.329 1087.88 609.87V613.926C1087.88 613.926 1081.93 600.141 1078.69 598.246C1078.69 598.246 1091.39 580.405 1019.23 551.21Z" fill="#77A4E5"/>
<path d="M1087.88 609.874C1087.88 609.874 1096.63 623.17 1091.64 639.352L1089.39 638.745C1089.39 638.745 1091.58 620.921 1087 611.957C1082.42 602.988 1087.88 609.874 1087.88 609.874Z" fill="#77A4E5"/>
<path d="M1114.72 574.479C1114.72 574.479 1088 559.511 1100.47 539.202C1100.47 539.202 1110.45 526.731 1121.14 523.522C1121.14 523.522 1115.43 553.812 1121.14 554.524C1126.84 555.236 1125.06 520.317 1125.06 520.317C1125.06 520.317 1153.2 506.776 1164.25 507.846C1164.25 507.846 1146.79 537.42 1152.49 536.709C1158.19 535.997 1177.79 506.065 1177.79 506.065C1177.79 506.065 1206.65 500.72 1211.28 517.824C1215.91 534.927 1208.43 543.481 1204.15 544.551C1199.88 545.621 1172.44 545.263 1173.16 548.826C1173.87 552.389 1192.4 558.092 1202.73 554.882C1202.73 554.882 1191.33 583.033 1176.36 581.61C1161.39 580.186 1156.77 570.92 1147.5 570.209C1138.24 569.497 1131.47 571.99 1136.1 574.483C1140.73 576.977 1156.41 575.3 1163.89 581.662C1171.37 588.024 1177.43 591.945 1163.53 594.797C1149.64 597.648 1124.7 595.866 1119.71 585.177C1114.72 574.488 1114.72 574.479 1114.72 574.479Z" fill="#9FC1F4"/>
<path d="M1198.1 523.168C1198.1 523.168 1123.28 547.398 1114.73 574.483C1114.73 574.483 1115.08 586.6 1107.6 600.495V605.839C1107.6 605.839 1115.44 587.666 1119.72 585.173C1119.71 585.168 1102.97 561.65 1198.1 523.168Z" fill="#9FC1F4"/>
<path d="M1107.6 600.495C1107.6 600.495 1096.06 618.018 1102.64 639.353L1105.61 638.553C1105.61 638.553 1102.73 615.057 1108.76 603.241C1114.8 591.426 1107.6 600.495 1107.6 600.495Z" fill="#9FC1F4"/>
<path d="M1113.82 685.611C1142.73 685.611 1166.17 662.172 1166.17 633.261H1061.48C1061.48 662.172 1084.92 685.611 1113.82 685.611Z" fill="#9FC1F4"/>
<path d="M1126.7 685.21C1124.57 685.476 1122.4 685.611 1120.2 685.611C1091.29 685.611 1067.85 662.172 1067.85 633.261H1080.86C1080.87 659.971 1100.87 682.005 1126.7 685.21Z" fill="#AFCDFB"/>
<path d="M1167.36 633.257H1059.76V634.863H1167.36V633.257Z" fill="#9FC1F4"/>
<path d="M870.143 683.035L818.708 469.521L822.302 461.115L873.256 683.009C873.387 683.577 872.954 684.118 872.369 684.118H871.518C870.867 684.122 870.296 683.673 870.143 683.035Z" fill="#77A4E5"/>
<path d="M638.014 684.122C636.958 684.122 636.154 683.175 636.325 682.131L651.474 590.295H657.966L639.9 682.572C639.721 683.472 638.935 684.122 638.014 684.122Z" fill="#77A4E5"/>
<path d="M783.336 684.122C782.279 684.122 781.476 683.175 781.646 682.131L796.796 590.295H803.288L785.222 682.572C785.047 683.472 784.257 684.122 783.336 684.122Z" fill="#77A4E5"/>
<path d="M818.573 590.487H637.652L675.133 355.459H856.059L818.573 590.487Z" fill="#F5FBFF"/>
<path d="M832.112 588.697H624.323V595.609H832.112V588.697Z" fill="#77A4E5"/>
<path d="M746.785 404.635C746.65 406.495 746.375 408.324 745.973 410.106C742.201 426.904 727.248 439.772 710.348 439.803C691.649 439.833 677.652 424.144 679.079 404.753C680.507 385.361 696.818 369.62 715.517 369.589C719.437 369.58 723.148 370.266 726.558 371.536C728.09 372.104 729.566 372.79 730.967 373.58C733.993 375.296 736.687 377.51 738.961 380.13C740.227 381.584 741.363 383.169 742.349 384.854C742.926 385.832 743.449 386.845 743.921 387.889C745.235 390.797 746.143 393.954 746.58 397.286C746.802 398.954 746.898 400.674 746.877 402.425C746.868 403.154 746.837 403.892 746.785 404.635Z" fill="#BDD1F9"/>
<path d="M743.921 387.888L712.937 404.691C712.937 404.691 725.72 382.173 730.968 373.575C733.993 375.291 736.687 377.505 738.961 380.125C740.228 381.579 741.363 383.164 742.349 384.849C742.926 385.827 743.45 386.84 743.921 387.888Z" fill="white"/>
<path d="M747.139 383.64L718.835 398.989C718.835 398.989 730.514 378.418 735.307 370.567C738.071 372.134 740.533 374.156 742.607 376.549C743.764 377.881 744.799 379.326 745.703 380.867C746.231 381.758 746.707 382.684 747.139 383.64Z" fill="#364154"/>
<path d="M804.166 572.623L655.25 572.614L670.326 486.681L819.241 486.69L804.166 572.623ZM656.455 571.746L803.271 571.754L818.045 487.55L671.23 487.542L656.455 571.746Z" fill="#BDD1F9"/>
<path d="M795.286 560.837L663.214 560.829C663.214 560.829 686.641 548.262 693.068 548.921C699.494 549.58 708.732 554.667 714.67 554.864C720.607 555.06 727.043 537.227 733.653 538.07C740.263 538.909 742.751 554.685 746.174 553.143C749.597 551.602 759.878 550.934 765.799 553.143C771.719 555.353 780.346 546.122 785.55 546.41C790.758 546.703 795.286 560.837 795.286 560.837Z" fill="#364154"/>
<path d="M694.975 535.582L669.75 535.577L669.985 534.241H695.207L694.975 535.582Z" fill="#364154"/>
<path d="M694.473 538.437H669.248L669.483 537.096L694.709 537.101L694.473 538.437Z" fill="#364154"/>
<path d="M670.775 517.753L802.847 517.762C802.847 517.762 783.829 505.195 777.171 505.85C770.514 506.509 759.494 511.592 753.487 511.789C747.479 511.985 747.305 494.152 740.398 494.991C733.491 495.829 725.471 511.605 722.585 510.064C719.704 508.522 709.658 507.854 702.961 510.064C696.268 512.273 690.876 503.042 685.571 503.331C680.262 503.619 670.775 517.753 670.775 517.753Z" fill="#BDD1F9"/>
<path d="M702.1 494.96H676.875L677.11 493.624H702.336L702.1 494.96Z" fill="#BDD1F9"/>
<path d="M701.599 497.82H676.373L676.608 496.479H701.834L701.599 497.82Z" fill="#BDD1F9"/>
<path d="M679.337 474.691H673.543L678.577 447.544H684.371L679.337 474.691Z" fill="#BDD1F9"/>
<path d="M687.226 474.69H681.433L685.331 453.661H691.125L687.226 474.69Z" fill="#BDD1F9"/>
<path d="M695.12 474.69H689.326L693.391 452.757H699.184L695.12 474.69Z" fill="#BDD1F9"/>
<path d="M703.009 474.691H697.215L700.311 458.011H706.104L703.009 474.691Z" fill="#BDD1F9"/>
<path d="M710.902 474.691H705.109L708.427 456.797H714.22L710.902 474.691Z" fill="#BDD1F9"/>
<path d="M718.792 474.691H712.998L715.574 460.814H721.363L718.792 474.691Z" fill="#BDD1F9"/>
<path d="M756.827 474.691H751.033L756.067 447.544H761.861L756.827 474.691Z" fill="#364154"/>
<path d="M764.715 474.69H758.926L762.825 453.661H768.614L764.715 474.69Z" fill="#364154"/>
<path d="M772.609 474.69H766.815L770.88 452.757H776.674L772.609 474.69Z" fill="#364154"/>
<path d="M780.498 474.691H774.705L777.8 458.011H783.593L780.498 474.691Z" fill="#364154"/>
<path d="M788.392 474.691H782.598L785.916 456.797H791.71L788.392 474.691Z" fill="#364154"/>
<path d="M796.281 474.691H790.487L793.063 460.814H798.857L796.281 474.691Z" fill="#364154"/>
<path d="M784.716 386.067H765.86L766.345 383.487H785.201L784.716 386.067Z" fill="#BDD1F9"/>
<path d="M807.851 386.067H787.025L787.514 383.487H808.335L807.851 386.067Z" fill="#BDD1F9"/>
<path d="M822.69 386.067H809.414L809.898 383.487H823.175L822.69 386.067Z" fill="#BDD1F9"/>
<path d="M835.081 386.067H824.838L825.323 383.487H835.565L835.081 386.067Z" fill="#BDD1F9"/>
<path d="M782.647 397.093H763.791L764.275 394.508H783.131L782.647 397.093Z" fill="#BDD1F9"/>
<path d="M805.777 397.093H784.956L785.441 394.508H806.266L805.777 397.093Z" fill="#BDD1F9"/>
<path d="M820.621 397.093H807.345L807.829 394.508H821.106L820.621 397.093Z" fill="#BDD1F9"/>
<path d="M833.011 397.093H822.769L823.254 394.508H833.496L833.011 397.093Z" fill="#BDD1F9"/>
<path d="M795.923 380.042H766.991L767.475 377.458H796.408L795.923 380.042Z" fill="#BDD1F9"/>
<path d="M815.356 380.042H798.678L799.163 377.457H815.84L815.356 380.042Z" fill="#BDD1F9"/>
<path d="M836.229 380.042H817.709L818.194 377.457H836.714L836.229 380.042Z" fill="#BDD1F9"/>
<path d="M793.723 391.761H764.791L765.275 389.177H794.208L793.723 391.761Z" fill="#BDD1F9"/>
<path d="M813.156 391.761H796.478L796.963 389.177H813.64L813.156 391.761Z" fill="#BDD1F9"/>
<path d="M834.029 391.761H815.509L815.993 389.177H834.513L834.029 391.761Z" fill="#BDD1F9"/>
<path d="M780.577 408.114H761.721L762.206 405.53H781.062L780.577 408.114Z" fill="#BDD1F9"/>
<path d="M803.708 408.114H782.887L783.372 405.53H804.193L803.708 408.114Z" fill="#BDD1F9"/>
<path d="M818.552 408.114H805.275L805.76 405.53H819.036L818.552 408.114Z" fill="#BDD1F9"/>
<path d="M830.942 408.114H820.7L821.184 405.53H831.427L830.942 408.114Z" fill="#BDD1F9"/>
<path d="M791.654 402.783H762.721L763.206 400.202H792.138L791.654 402.783Z" fill="#BDD1F9"/>
<path d="M811.086 402.783H794.409L794.893 400.202H811.571L811.086 402.783Z" fill="#BDD1F9"/>
<path d="M831.955 402.783H813.435L813.924 400.202H832.444L831.955 402.783Z" fill="#BDD1F9"/>
<path d="M778.639 418.45H759.778L760.263 415.865H779.123L778.639 418.45Z" fill="#BDD1F9"/>
<path d="M801.77 418.45H780.949L781.433 415.865H802.254L801.77 418.45Z" fill="#BDD1F9"/>
<path d="M816.609 418.45H803.336L803.821 415.865H817.093L816.609 418.45Z" fill="#BDD1F9"/>
<path d="M829.004 418.45H818.761L819.246 415.865H829.488L829.004 418.45Z" fill="#BDD1F9"/>
<path d="M789.71 413.118H760.782L761.267 410.534H790.195L789.71 413.118Z" fill="#BDD1F9"/>
<path d="M809.143 413.118H792.466L792.955 410.533H809.628L809.143 413.118Z" fill="#BDD1F9"/>
<path d="M830.017 413.118H811.497L811.981 410.533H830.501L830.017 413.118Z" fill="#BDD1F9"/>
<path d="M735.722 451.578H726.493L726.733 450.317H735.962L735.722 451.578Z" fill="#BDD1F9"/>
<path d="M747.047 451.578H736.857L737.093 450.317H747.283L747.047 451.578Z" fill="#BDD1F9"/>
<path d="M734.709 456.976H725.479L725.72 455.709H734.949L734.709 456.976Z" fill="#BDD1F9"/>
<path d="M746.034 456.976H735.844L736.08 455.709H746.27L746.034 456.976Z" fill="#BDD1F9"/>
<path d="M741.21 448.631H727.047L727.287 447.365H741.445L741.21 448.631Z" fill="#BDD1F9"/>
<path d="M750.718 448.631H742.559L742.794 447.365H750.959L750.718 448.631Z" fill="#BDD1F9"/>
<path d="M740.131 454.368H725.973L726.208 453.102H740.367L740.131 454.368Z" fill="#BDD1F9"/>
<path d="M749.645 454.368H741.48L741.716 453.102H749.88L749.645 454.368Z" fill="#BDD1F9"/>
<path d="M809.658 451.578H800.429L800.669 450.317H809.898L809.658 451.578Z" fill="#BDD1F9"/>
<path d="M820.983 451.578H810.789L811.029 450.317H821.219L820.983 451.578Z" fill="#BDD1F9"/>
<path d="M808.645 456.976H799.416L799.656 455.709H808.886L808.645 456.976Z" fill="#BDD1F9"/>
<path d="M819.971 456.976H809.776L810.016 455.709H820.206L819.971 456.976Z" fill="#BDD1F9"/>
<path d="M815.146 448.631H800.983L801.223 447.365H815.382L815.146 448.631Z" fill="#BDD1F9"/>
<path d="M824.655 448.631H816.496L816.731 447.365H824.896L824.655 448.631Z" fill="#BDD1F9"/>
<path d="M814.068 454.368H799.905L800.145 453.102H814.304L814.068 454.368Z" fill="#BDD1F9"/>
<path d="M823.581 454.368H815.417L815.653 453.102H823.817L823.581 454.368Z" fill="#BDD1F9"/>
<path d="M858.764 680.638C858.441 685.057 852.207 685.105 845.138 684.284C838.066 683.463 839.947 685.253 830.046 685.393C820.144 685.533 816.73 682.258 816.249 680.843C815.822 679.586 820.593 678.529 825.693 677.289C826.335 677.136 826.981 676.974 827.623 676.808C833.377 675.346 837.184 671.04 842.108 667.281C846.771 663.718 852.783 650.828 852.783 650.828L866.308 650.216C866.308 650.216 860.611 661.77 858.472 666.752C857.214 669.682 857.747 673.285 858.297 676.044C858.585 677.546 858.878 679.083 858.764 680.638Z" fill="#FF7955"/>
<path d="M845.134 684.284C838.062 683.463 839.943 685.253 830.042 685.393C820.14 685.532 816.726 682.258 816.246 680.843C815.818 679.585 820.59 678.529 825.689 677.288L825.75 677.38C825.75 677.38 832.124 680.803 840.28 679.983C846.924 679.314 853.709 676.542 858.293 676.044C858.586 677.546 858.878 679.083 858.76 680.638C858.437 685.056 852.207 685.105 845.134 684.284Z" fill="#233862"/>
<path d="M952.186 681.555C951.867 685.974 945.632 686.026 938.56 685.214C931.487 684.402 933.369 686.188 923.467 686.336C913.565 686.485 910.147 683.214 909.666 681.799C909.239 680.542 914.006 679.481 919.105 678.236C919.747 678.083 920.389 677.918 921.035 677.756C926.785 676.289 930.592 671.979 935.508 668.211C940.166 664.643 935.512 643.531 935.512 643.531L950.391 642.082C950.391 642.082 949.68 659.858 949.688 667.944C949.693 671.132 951.16 674.202 951.71 676.961C952.006 678.463 952.299 680 952.186 681.555Z" fill="#FF7955"/>
<path d="M938.56 685.214C931.487 684.402 933.369 686.188 923.467 686.336C913.565 686.485 910.147 683.214 909.666 681.799C909.239 680.542 914.006 679.481 919.105 678.236L919.167 678.328C919.167 678.328 925.545 681.742 933.7 680.917C940.345 680.245 947.125 677.463 951.71 676.961C952.002 678.463 952.299 680 952.181 681.555C951.867 685.974 945.632 686.026 938.56 685.214Z" fill="#233862"/>
<path d="M908.767 316.619C906.204 306.082 909.92 301.174 913.268 298.563C914.858 294.686 916.669 291.891 918.525 290.834C921.908 288.913 925.96 288.704 928.793 288.869C928.064 288.114 926.628 287.843 926.628 287.843C928.387 287.581 932.308 289.324 932.308 289.324C956.757 279.901 960.599 315.903 960.084 324.269C959.573 332.631 959.643 342.482 972.36 349.071C996.63 361.646 964.297 409.027 964.297 409.027C964.912 402.268 933.731 366.598 917.464 355.917C913.504 350.088 912.098 339.783 911.989 338.975C912.675 347.145 914.072 351.725 915.32 354.306C907.903 347.486 906.803 331.094 908.767 316.619Z" fill="#131F2D"/>
<path d="M918.424 356.454C918.342 356.489 926.279 360.611 932.251 358.978C937.866 357.446 941.537 350.167 941.459 350.149C939.079 349.678 938.394 346.407 938.446 332.364L937.372 332.574L919.298 336.154C919.298 336.154 919.708 341.844 919.721 347.202C919.726 351.708 919.455 355.974 918.424 356.454Z" fill="#FF7955"/>
<path d="M919.289 336.159C919.289 336.159 919.699 341.848 919.712 347.206C929.828 346.922 935.172 337.691 937.363 332.578L919.289 336.159Z" fill="#ED975D"/>
<path d="M845.746 657.989C844.859 660.766 846.85 663.63 849.767 663.765L856.826 664.097L864.296 664.324C866.165 664.381 867.951 663.565 869.134 662.115C875.097 654.797 893.456 630.41 904.589 594.975C904.903 593.98 905.231 592.975 905.584 591.958C912.936 570.51 928.182 543.59 936.219 519.225C937.499 515.343 938.647 511.693 939.677 508.234C940.005 507.125 940.328 506.038 940.633 504.968C946.554 484.393 948.269 470.883 949.85 456.452L891.836 456.915C891.836 456.915 879.62 551.856 845.746 657.989Z" fill="#2A4E96"/>
<path d="M899.957 423.572C900.101 451.182 895.905 463.028 895.905 463.028C895.905 463.028 920.743 475.651 950.265 466.36C950.614 466.25 971.387 460.369 971.387 460.369C970.893 459.251 966.789 440.776 966.305 439.75C960.07 426.362 958.372 420.743 957.634 416.625C956.263 408.94 956.233 400.993 956.918 393.491C958.721 373.641 964.078 357.166 964.078 357.166C956.036 355.336 948.501 352.118 940.127 348.979C938.202 351.376 932.316 353.887 927.208 353.773C921.328 353.642 919.42 351.127 919.725 348.376C913.46 351.865 908.457 355.157 908.457 355.157C903.131 364.41 892.33 373.396 891.548 387.588C891.356 391.081 899.952 422.799 899.957 423.572Z" fill="white"/>
<path d="M949.85 426.65C952.386 430.24 957.25 452.059 969.344 454.801C963.109 439.252 958.376 432.432 957.639 427.65C956.268 418.725 956.237 409.49 956.923 400.779C952.876 393.679 949.85 388.814 949.85 388.814C949.531 387.666 943.415 368.75 941.454 385.657C939.498 402.573 947.016 422.637 949.85 426.65Z" fill="#5F9AA8"/>
<path d="M915.914 341.233C915.914 341.233 939.848 341.626 939.861 326.719C939.878 311.811 942.978 301.821 927.697 300.939C912.417 300.057 909.444 305.742 908.226 310.715C907.012 315.689 909.688 340.744 915.914 341.233Z" fill="#FF7955"/>
<path d="M916.8 300.572C916.8 300.572 923.353 318.064 933.408 320.649C943.463 323.234 947.824 320.54 947.824 320.54C947.824 320.54 940.11 314.414 938.512 303.716C938.512 303.716 921.742 292.245 916.8 300.572Z" fill="#131F2D"/>
<path d="M918.425 301.991C918.425 301.991 913.53 305.894 912.339 309.693C911.147 313.488 910.61 321.304 908.331 321.042C908.331 321.042 903.393 309.152 908.942 302.427C914.823 295.292 918.425 301.991 918.425 301.991Z" fill="#131F2D"/>
<path d="M878.258 442.737L866.955 477.206L873.399 479.791L892.089 449.339L878.258 442.737Z" fill="#FF7955"/>
<path d="M908.732 353.131C908.732 353.131 895.403 358.419 891.548 366.668C887.689 374.916 881.852 430.231 879.525 435.912C877.198 441.593 875.451 446.09 875.451 446.09C875.451 446.09 882.17 451.754 888.929 452.168C895.683 452.588 908.732 353.131 908.732 353.131Z" fill="#148EF6"/>
<path d="M919.725 348.381C919.725 348.381 905.881 382.592 905.471 389.513C905.065 396.439 903.842 502.733 903.842 502.733C903.842 502.733 904.659 507.619 895.29 505.584C885.925 503.549 883.48 501.51 883.48 501.51C883.48 501.51 892.439 435.942 889.994 413.136C887.549 390.33 908.723 353.131 908.723 353.131L919.725 348.381Z" fill="#148EF6"/>
<path d="M856.826 664.097L864.938 664.346C866.387 664.39 867.776 663.766 868.701 662.648C874.154 656.041 893.172 631.318 904.593 594.98C904.907 593.984 905.235 592.98 905.588 591.963C912.941 570.514 928.186 543.595 936.224 519.229C937.503 515.348 938.651 511.697 939.682 508.239C940.009 507.13 940.332 506.043 940.638 504.973L932.094 498.489C932.094 498.489 906.444 540.027 898.503 579.121C891.6 613.075 863.977 653.932 856.826 664.097Z" fill="#1E3D70"/>
<path d="M931.199 582.758C931.059 600.743 931.911 640.828 934.102 660.425C934.303 662.22 935.818 663.573 937.625 663.573H943.677C946.226 663.573 948.138 663.556 949.405 663.538C950.5 663.521 951.439 662.735 951.649 661.656C957.669 631.021 961.978 605.568 965.13 583.574C967.767 565.165 970.116 549.384 971.919 535.8C973.735 522.129 974.997 510.68 975.451 501.008C975.521 499.484 975.574 498.004 975.6 496.563C975.63 495.117 975.635 493.711 975.626 492.349L925.501 487.463C926.13 520.766 931.282 571.706 931.199 582.758Z" fill="#2A4E96"/>
<path d="M943.677 663.569C945.969 663.569 947.741 663.556 948.999 663.539C950.33 663.521 951.474 662.565 951.727 661.259C957.709 630.798 961.992 605.473 965.131 583.575C967.768 565.165 970.116 549.385 971.92 535.801C973.736 522.129 974.997 510.68 975.452 501.008L957.058 511.828C957.058 511.828 968.798 515.972 964.319 547.328C959.839 578.684 949.911 659.133 943.677 663.569Z" fill="#1E3D70"/>
<path d="M941.306 500.694C941.306 500.694 944.838 513.453 957.053 511.824C969.269 510.195 986.641 502.864 986.641 502.864C986.641 502.864 981.419 486.367 974.927 464.692C967.069 438.453 957.341 404.626 952.757 383.287C951.469 377.309 950.592 372.314 950.264 368.737L940.131 349.071C940.131 349.071 925.021 382.99 924.205 391.544C923.392 400.102 941.306 500.694 941.306 500.694Z" fill="#148EF6"/>
<path d="M953.504 390.273L940.127 349.075C940.162 349.092 957.023 354.092 965.501 358.375C965.501 358.375 970.801 365.209 974.08 380.976C974.08 380.976 977.547 418.834 969.81 432.68C969.81 432.68 945.379 437.567 906.287 424.126V415.166C906.287 415.166 949.042 417.406 957.8 418.424L953.504 390.273Z" fill="#FF7955"/>
<path d="M941.847 409.468C942.393 423.314 945.65 450.195 974.696 464.583C974.775 464.617 974.849 464.661 974.927 464.692C967.069 438.453 957.342 404.626 952.758 383.287C947.422 391.264 941.55 401.844 941.847 409.468Z" fill="#1774C3"/>
<path d="M940.132 349.075C940.132 349.075 964.925 350.821 970.898 364.126C976.87 377.431 978.769 421.686 971.168 434.72C971.168 434.72 960.704 437.702 942.197 434.239C941.97 434.196 941.743 434.152 941.511 434.108C941.511 434.108 935.608 419.651 940.9 416.799C940.9 416.799 956.508 417.616 954.879 412.455C953.251 407.294 940.132 349.075 940.132 349.075Z" fill="#148EF6"/>
<path d="M877.961 420.708L878.69 423.057L919.376 410.399C919.376 410.399 919.917 409.778 919.651 408.958C919.354 408.049 918.647 408.049 918.647 408.049L877.961 420.708Z" fill="#A9453D"/>
<path d="M875.019 422.926L877.962 420.708L878.691 423.052L875.019 422.926Z" fill="#A9453D"/>
<path d="M868.562 476.263C868.562 476.263 858.241 481.965 856.883 486.314C855.525 490.663 856.46 499.763 858.097 499.628C859.734 499.493 862.179 489.847 863.537 489.17C864.894 488.489 866.798 486.454 866.798 487.948C866.798 489.441 865.44 492.157 866.117 492.567C866.798 492.973 868.968 488.764 870.461 487.948C871.954 487.131 872.583 480.415 874.032 478.612C875.482 476.809 868.562 476.263 868.562 476.263Z" fill="#FF7955"/>
<path d="M906.288 415.171C906.288 415.171 897.058 409.486 893.186 410.359C889.313 411.232 879.446 418.38 884.192 419.93C888.938 421.481 892.784 419.856 894.609 420.978C896.434 422.105 897.783 424.157 906.288 424.131C914.792 424.105 906.288 415.171 906.288 415.171Z" fill="#FF7955"/>
<g opacity="0.6">
<g opacity="0.6">
<path opacity="0.6" d="M459.249 684.109H459.096C458.197 684.109 457.476 683.371 457.498 682.472L459.921 577.413L467.059 576.579L460.973 682.481C460.921 683.398 460.161 684.109 459.249 684.109Z" fill="#77A4E5"/>
</g>
<g opacity="0.6">
<path opacity="0.6" d="M417.647 684.109H417.494C416.595 684.109 415.874 683.371 415.896 682.472L418.319 577.413L425.457 576.579L419.371 682.481C419.319 683.398 418.559 684.109 417.647 684.109Z" fill="#77A4E5"/>
</g>
<g opacity="0.6">
<path opacity="0.6" d="M532.443 684.109H532.596C533.495 684.109 534.215 683.371 534.194 682.472L531.77 577.413L524.632 576.579L530.718 682.481C530.771 683.398 531.53 684.109 532.443 684.109Z" fill="#77A4E5"/>
</g>
<path opacity="0.6" d="M412.914 570.898V498.908C412.914 486.24 423.183 475.97 435.848 475.97H487.71C500.375 475.97 510.644 486.24 510.644 498.908V573.649L412.914 570.898Z" fill="#77A4E5"/>
<path opacity="0.6" d="M519.934 582.264H419.799C415.996 582.264 412.914 579.182 412.914 575.378V570.898H519.934V582.264V582.264Z" fill="#77A4E5"/>
<path opacity="0.6" d="M531.936 582.265H456.18C453.368 582.265 451.089 579.985 451.089 577.173V575.994C451.089 573.182 453.368 570.903 456.18 570.903H531.936C534.748 570.903 537.027 573.182 537.027 575.994V577.173C537.027 579.985 534.748 582.265 531.936 582.265Z" fill="#77A4E5"/>
</g>
<path d="M588.609 642.217C589.334 645.837 594.49 645.23 600.253 643.824C606.016 642.418 604.645 644.09 612.844 643.182C621.043 642.274 623.528 639.217 623.781 637.994C624.003 636.912 619.952 636.532 615.608 636.029C615.062 635.968 614.512 635.903 613.962 635.833C609.055 635.217 605.462 632.052 601.004 629.449C596.782 626.986 590.482 616.948 590.482 616.948L579.236 617.839C579.236 617.839 585.138 626.803 587.422 630.702C588.767 632.995 588.692 636.025 588.526 638.366C588.439 639.645 588.356 640.942 588.609 642.217Z" fill="#FF7955"/>
<path d="M600.253 643.824C606.016 642.418 604.645 644.09 612.844 643.182C621.044 642.274 623.528 639.217 623.781 637.994C624.004 636.912 619.952 636.532 615.608 636.03L615.569 636.112C615.569 636.112 610.653 639.601 603.825 639.763C598.263 639.898 592.369 638.304 588.527 638.366C588.439 639.636 588.356 640.937 588.614 642.212C589.334 645.837 594.49 645.234 600.253 643.824Z" fill="#233862"/>
<path d="M491.967 658.403C489.732 661.342 493.595 664.809 498.463 668.198C503.331 671.586 501.17 671.669 507.274 677.219C513.377 682.769 517.315 682.607 518.394 681.991C519.354 681.446 516.957 678.153 514.46 674.56C514.146 674.11 513.831 673.651 513.521 673.197C510.736 669.11 510.736 664.32 509.736 659.255C508.789 654.46 516.621 636.833 516.621 636.833L504.039 635.248C504.039 635.248 502.397 645.893 500.982 650.181C500.153 652.705 496.656 654.369 494.792 655.792C493.783 656.57 492.753 657.369 491.967 658.403Z" fill="#FF7955"/>
<path d="M498.463 668.198C503.331 671.586 501.17 671.669 507.273 677.219C513.377 682.769 517.315 682.607 518.393 681.992C519.354 681.446 516.957 678.153 514.46 674.56L514.368 674.586C514.368 674.586 508.5 673.206 503.864 668.193C500.083 664.111 497.38 658.635 494.791 655.797C493.779 656.574 492.748 657.373 491.962 658.408C489.731 661.342 493.595 664.809 498.463 668.198Z" fill="#233862"/>
<path d="M543.344 568.292L531.853 599.216L516.852 639.593C516.852 639.593 512.783 639.986 508.884 638.864C505.296 637.824 501.179 635.113 501.179 635.113C501.179 635.113 505.344 591.758 513.115 566.873C515.106 560.485 517.337 555.319 519.799 552.411C531.845 538.172 543.344 568.292 543.344 568.292Z" fill="#163560"/>
<path d="M531.661 519.181C524.134 516.754 501.449 518.203 479.882 522.426L476.581 516.644L429.998 513.007C429.998 513.007 414.625 547.101 423.043 568.824C424.278 572.016 426.736 574.064 430.928 574.134C430.928 574.134 431.604 574.134 431.609 574.134C431.609 574.134 459.336 574.116 468.339 574.116C491.504 574.116 517.367 558.187 520.712 557.519C526.186 556.423 528.378 567.379 533.853 578.88C539.328 590.382 585.326 629.816 585.326 629.816C585.326 629.816 592.395 629.886 595.315 628.79C598.454 627.611 599.607 626.082 599.607 626.082C599.607 626.082 548.64 524.657 531.661 519.181Z" fill="#2A4E96"/>
<path d="M460.266 375.615C453.709 374.051 444.807 375.885 443.327 376.06C425.636 378.125 421.681 405.608 422.995 413.298C425.418 427.467 418.616 431.458 410.496 442.789C394.215 465.513 405.462 484.219 418.712 488.856C426.662 491.637 437.499 484.062 437.499 484.062C437.699 484.136 465.628 457.469 479.441 444.514C502.672 434.943 476.979 379.597 460.266 375.615Z" fill="#233862"/>
<path d="M464.056 440.418C464.139 440.444 456.852 445.204 450.914 444.204C445.33 443.265 439.419 435.977 439.493 435.955C441.751 435.266 443.746 432.633 442.336 419.04L443.396 419.14L461.244 420.852C461.244 420.852 461.397 426.401 461.908 431.589C462.331 435.947 463.012 440.051 464.056 440.418Z" fill="#FF7955"/>
<path d="M461.249 420.847C461.249 420.847 461.401 426.397 461.912 431.585C452.089 432.292 446.02 423.873 443.401 419.131L461.249 420.847Z" fill="#ED975D"/>
<path d="M465.007 425.437C465.007 425.437 441.877 428.14 440.415 413.708C438.952 399.273 434.983 389.902 449.692 387.566C464.401 385.23 467.832 390.448 469.491 395.146C471.15 399.845 470.989 424.358 465.007 425.437Z" fill="#FF7955"/>
<path d="M466.732 387.727C466.732 387.727 455.56 403.722 446.077 407.202C436.59 410.682 432.106 408.494 432.106 408.494C432.106 408.494 436.629 402.264 438.123 393.688C438.564 391.159 440.319 389.055 442.737 388.212C449.539 385.837 462.654 382.199 466.732 387.727Z" fill="#233862"/>
<path d="M457.499 388.906C457.499 388.906 463.471 392.317 465.855 395.369C468.156 398.312 470.614 406.132 470.26 409.577C470.26 409.577 474.023 393.159 467.998 387.186C461.611 380.85 457.499 388.906 457.499 388.906Z" fill="#233862"/>
<path d="M481.842 478.713C481.144 525.447 481.65 515.68 476.538 520.116C475.306 521.186 471.844 521.819 467.286 522.12C452.958 523.072 427.771 520.71 426.815 518.064C423.51 508.898 425.841 506.056 423.086 492.026C422.798 490.533 422.445 488.917 422.026 487.162C419.725 477.525 417.489 474.25 425.645 458.771C433.041 444.75 441.03 433.55 441.72 433.96C461.235 445.545 462.506 435.628 462.506 435.628C462.506 435.628 482.183 455.919 481.842 478.713Z" fill="white"/>
<path d="M531.853 599.215L516.512 641.274C516.512 641.274 511.002 643.068 506.985 642.488C502.894 641.894 500.655 639.662 500.655 639.662C500.655 639.662 505.344 591.762 513.111 566.877L531.853 599.215Z" fill="#2A4E96"/>
<path d="M462.506 435.619C462.506 435.619 482.584 439.025 484.942 447.671C487.3 456.317 504.545 503.964 504.545 503.964C504.545 503.964 490.971 508.981 486.252 504.265C481.537 499.55 469.845 460.509 469.845 460.509L462.506 435.619Z" fill="white"/>
<path d="M467.287 522.12C452.958 523.072 427.772 520.71 426.815 518.064C423.51 508.898 425.842 506.056 423.087 492.026L429.806 476.721C429.806 476.721 428.854 494.236 435.246 499.934C441.629 505.632 461.41 510.937 464.519 515.701C466.016 517.989 467.003 520.282 467.287 522.12Z" fill="#DFEBFD"/>
<path d="M468.457 512.146C468.457 512.146 472.722 515.827 473.94 516.124C475.154 516.421 475.844 516.146 475.844 516.146L472.735 512.505L468.457 512.146Z" fill="#FF7955"/>
<path d="M466.763 507.811L477.568 510.601C477.568 510.601 477.289 511.369 476.066 511.561C474.844 511.749 471.561 511.251 471.561 511.251L466.763 507.811Z" fill="#FF7955"/>
<path d="M448.444 513.767C448.444 513.767 463.868 506.903 466.763 507.811C469.658 508.719 477.084 512.649 478.25 514.304C479.415 515.959 472.168 514.099 469.906 513.955C468.439 513.863 465.039 515.876 463.349 516.845C456.241 520.928 451.303 520.566 451.303 520.566L448.444 513.767Z" fill="#FF7955"/>
<path d="M441.72 433.956C441.72 433.956 419.899 438.051 415.857 444.099C407.038 457.299 388.26 511.985 398.777 519.317C410.618 527.574 452.674 521.478 452.674 521.478C452.674 521.478 454.075 514.937 452.128 511.771C450.181 508.606 418.542 503.492 417.079 502.034C415.621 500.576 431.504 479.455 429.814 475.411C424.388 462.465 441.72 433.956 441.72 433.956Z" fill="white"/>
<path d="M527.985 511.435C527.985 511.435 543.257 515.562 544.824 517.933C546.396 520.304 549.47 527.552 549.339 529.443C549.208 531.334 545.038 525.701 543.475 524.26C542.462 523.325 538.8 522.78 537.001 522.487C532.46 521.749 530.273 519.671 528.57 518.64C527.431 517.946 526.042 518.077 526.042 518.077L527.985 511.435Z" fill="#FF7955"/>
<path d="M543.493 522.085C543.493 522.085 544.418 527.286 545.13 528.216C545.842 529.146 546.501 529.36 546.501 529.36L546.392 524.871L543.493 522.085Z" fill="#FF7955"/>
<path d="M544.824 517.932L551.032 526.346C551.032 526.346 550.373 526.739 549.373 526.154C548.374 525.569 546.282 523.268 546.282 523.268L544.824 517.932Z" fill="#FF7955"/>
<path d="M528.575 518.636C528.575 518.636 529.989 522.072 532.818 523.304C535.643 524.535 537.721 526.386 538.175 525.723C538.629 525.059 536.036 521.557 536.036 521.557L528.575 518.636Z" fill="#FF7955"/>
<path d="M500.489 492.699L532.604 513.007C532.604 513.007 529.229 517.522 528.103 517.933C522.157 520.116 495.407 518.025 486.248 504.27L500.489 492.699Z" fill="white"/>
<path d="M487.762 514.767C489.657 514.762 508.509 513.461 508.509 513.461C508.509 513.461 507.963 516.802 509.129 518.592L490.757 522.107L486.981 520.998L487.762 514.767Z" fill="#F9DDBF"/>
<path d="M456.32 517.797L487.762 514.767C487.762 514.767 486.658 520.583 490.762 522.102L456.097 524.639C456.097 524.644 453.303 520.709 456.32 517.797Z" fill="#F99746"/>
<path d="M508.457 513.876L487.208 515.513C487.208 515.513 487.37 514.78 487.762 514.771C488.16 514.762 508.871 513.256 508.871 513.256L508.797 513.837L508.457 513.876Z" fill="#F99746"/>
<path d="M490.757 522.106L509.474 518.548L509.299 518.063L489.356 521.883L490.757 522.106Z" fill="#F99746"/>
<path d="M272.983 683.943H272.813C271.818 683.943 271.014 683.118 271.041 682.118L273.73 564.807L281.654 563.877L274.896 682.127C274.839 683.144 274.001 683.943 272.983 683.943Z" fill="#77A4E5"/>
<path d="M226.801 683.943H226.631C225.636 683.943 224.832 683.118 224.859 682.118L227.548 564.807L235.472 563.877L228.714 682.127C228.657 683.144 227.819 683.943 226.801 683.943Z" fill="#77A4E5"/>
<path d="M354.237 683.943H354.407C355.402 683.943 356.206 683.118 356.179 682.118L353.49 564.807L345.566 563.877L352.324 682.127C352.381 683.144 353.224 683.943 354.237 683.943Z" fill="#77A4E5"/>
<path d="M221.55 557.533V477.145C221.55 463.002 232.949 451.535 247.007 451.535H304.58C318.642 451.535 330.037 463.002 330.037 477.145V560.602L221.55 557.533Z" fill="#77A4E5"/>
<path d="M340.353 570.222H229.216C224.981 570.222 221.549 566.789 221.549 562.554V557.532H340.353V570.222Z" fill="#77A4E5"/>
<path d="M353.656 570.222H269.591C266.461 570.222 263.924 567.685 263.924 564.554V563.205C263.924 560.074 266.461 557.537 269.591 557.537H353.656C356.786 557.537 359.323 560.074 359.323 563.205V564.554C359.323 567.685 356.786 570.222 353.656 570.222Z" fill="#77A4E5"/>
<path d="M308.452 421.843C308.452 421.843 303.632 425.943 302.589 436.576C301.794 444.649 307.396 507.326 311.609 512.309C323.462 526.325 338.323 520.404 344.143 522.531L349.635 517.596C349.635 517.596 330.329 503.344 328.862 498.698C323.2 480.795 326.706 428.602 308.452 421.843Z" fill="#148EF6"/>
<path d="M304.99 370.72C304.99 370.72 305.318 359.223 290.159 356.97C275.001 354.712 270.814 358.258 268.238 362.126C265.663 365.991 260.83 381.78 261.314 388.064C261.799 394.347 279.088 402.115 278.804 405.783C278.516 409.446 304.99 370.72 304.99 370.72Z" fill="#163560"/>
<path d="M375.293 674.027C374.8 677.913 380.1 679.053 386.26 679.594C392.421 680.136 390.513 681.354 398.917 683.223C407.321 685.096 410.797 682.86 411.447 681.721C412.028 680.708 408.155 678.948 404.025 676.97C403.506 676.721 402.986 676.468 402.466 676.215C397.826 673.931 395.328 669.525 391.792 665.399C388.443 661.486 385.566 649.256 385.566 649.256L374.158 646.334C374.158 646.334 377 657.351 377.957 662.045C378.52 664.805 377.437 667.831 376.49 670.128C375.983 671.376 375.464 672.656 375.293 674.027Z" fill="#FF7955"/>
<path d="M386.261 679.595C392.421 680.136 390.513 681.354 398.917 683.223C407.322 685.096 410.797 682.861 411.447 681.721C412.028 680.708 408.155 678.948 404.025 676.97L403.955 677.04C403.955 677.04 397.935 678.878 391.137 676.726C385.597 674.975 380.306 671.368 376.49 670.128C375.979 671.377 375.464 672.656 375.294 674.027C374.805 677.909 380.1 679.053 386.261 679.595Z" fill="#233862"/>
<path d="M289.884 515.653C289.884 515.653 366.147 523.565 378.721 535.241C391.29 546.918 389.05 655.701 389.05 655.701C387.095 657.731 385.649 657.683 382.558 657.443C379.59 657.211 373.543 654.657 373.543 654.657C373.543 654.657 357.21 601.241 357.005 588.875C356.8 576.505 354.22 555.52 349.029 554.284C343.842 553.048 282.1 559.969 275.333 540.464C268.566 520.959 279.803 504.912 279.803 504.912L289.884 515.653Z" fill="#364154"/>
<path d="M254.259 535.277C257.551 537.482 263.431 540.879 273.307 541.228C290.976 541.87 313.019 539.765 317.358 535.665C318.485 534.608 319.035 532.853 319.192 530.631C319.672 523.849 316.433 512.697 314.259 503.466C312.849 497.467 311.888 492.288 312.674 489.638C315.071 481.577 322.519 465.15 323.161 459.749C323.803 454.352 317.363 425.424 308.457 421.843C299.546 418.258 265.173 421.843 265.173 421.843C251.744 424.568 251.181 453.203 255.638 477.577C255.756 478.206 255.87 478.83 255.992 479.446C260.821 504.196 245.077 529.124 254.259 535.277Z" fill="#148EF6"/>
<path d="M298.668 427.109C298.428 428.681 294.128 431.227 284.942 428.803C276.136 426.48 275.08 423.616 275.084 421.721C275.084 419.481 278.908 416.459 278.86 402.67L279.917 402.879L297.669 406.394C297.669 406.394 297.263 411.979 297.254 417.245C297.236 421.664 299.07 424.498 298.668 427.109Z" fill="#FF7955"/>
<path d="M297.664 406.394C297.664 406.394 297.258 411.979 297.249 417.245C287.317 416.966 282.065 407.901 279.913 402.879L297.664 406.394Z" fill="#ED975D"/>
<path d="M300.982 411.376C300.982 411.376 277.481 411.765 277.463 397.124C277.446 382.483 274.403 372.671 289.408 371.807C304.414 370.942 307.335 376.522 308.526 381.409C309.718 386.295 307.094 410.9 300.982 411.376Z" fill="#FF7955"/>
<path d="M300.109 371.449C300.109 371.449 293.674 388.627 283.798 391.164C273.923 393.705 269.64 391.059 269.64 391.059C269.64 391.059 277.214 385.042 278.786 374.536C278.791 374.532 295.259 363.271 300.109 371.449Z" fill="#163560"/>
<path d="M298.516 372.842C298.516 372.842 303.322 376.676 304.492 380.405C305.663 384.134 306.191 391.81 308.426 391.548C308.426 391.548 313.272 379.872 307.824 373.27C302.052 366.266 298.516 372.842 298.516 372.842Z" fill="#163560"/>
<path d="M318.018 677.219C317.961 681.136 323.353 681.66 329.535 681.49C335.717 681.315 333.953 682.747 342.515 683.638C351.072 684.529 354.277 681.909 354.8 680.699C355.268 679.625 351.22 678.324 346.898 676.835C346.352 676.651 345.811 676.455 345.265 676.263C340.397 674.529 337.429 670.438 333.456 666.744C329.692 663.246 338.001 646.317 338.001 646.317L327.112 640.929C327.112 640.929 325.047 653.015 322.388 663.587C321.703 666.32 319.463 670.818 318.778 673.211C318.407 674.507 318.035 675.839 318.018 677.219Z" fill="#FF7955"/>
<path d="M254.73 532.364C258.022 534.569 263.436 540.874 273.307 541.228C289.6 537.521 308.151 533.207 319.188 530.631C319.668 523.849 316.428 512.697 314.254 503.466C301.384 507.396 282.235 494.009 275.8 488.716C269.033 483.158 269.247 464.639 269.247 464.639L255.634 477.582C255.752 478.211 255.865 478.835 255.987 479.451C260.82 504.196 245.549 526.212 254.73 532.364Z" fill="#1774C4"/>
<path d="M329.531 681.485C335.713 681.311 333.949 682.743 342.51 683.634C351.068 684.524 354.272 681.904 354.796 680.695C355.263 679.621 351.216 678.32 346.894 676.831L346.833 676.909C346.833 676.909 341.052 679.429 334.058 678.075C328.356 676.975 322.698 674.001 318.769 673.206C318.402 674.508 318.031 675.839 318.014 677.219C317.961 681.136 323.349 681.66 329.531 681.485Z" fill="#233862"/>
<path d="M273.429 520.308C292.792 519.758 350.622 524.373 361.733 532.753C375.407 543.067 336.342 654.579 336.342 654.579C336.342 654.579 331.805 655.02 330.369 654.854C324.165 654.151 321.637 652.26 321.637 652.26C321.637 652.26 321.79 586.623 326.352 574.069C330.57 562.467 333.154 558.362 327.872 557.673C322.589 556.983 256.638 565.393 251.133 545.481C246.833 529.928 253.185 515.531 253.185 515.531C253.185 515.531 255.564 520.815 273.429 520.308Z" fill="#9A9C9D"/>
<path d="M265.169 421.843C265.169 421.843 251.718 422.987 250.67 433.62C249.875 441.693 244.025 498.96 248.238 503.938C260.091 517.954 299.624 520.924 305.444 523.05L307.046 516.422C307.046 516.422 264.846 495.157 265.488 490.323C266.138 485.489 278.07 419.93 265.169 421.843Z" fill="#148EF6"/>
<path d="M275.555 362.751C275.555 362.751 276.52 356.616 268.016 355.035C259.511 353.45 259.354 371.519 258.441 375.877C257.529 380.235 259.803 382.841 263.043 383.108C266.287 383.37 275.555 362.751 275.555 362.751Z" fill="#163560"/>
<path d="M307.509 516.129C307.509 516.129 319.528 512.727 322.392 513.522C325.256 514.317 335.062 520.814 333.687 522.578C332.307 524.342 323.667 521.522 319.69 522.054C315.713 522.587 312.639 524.552 309.775 524.128C306.911 523.705 303.92 522.578 303.92 522.578L307.509 516.129Z" fill="#FF7955"/>
<path d="M307.509 516.129C307.509 516.129 313.39 513.107 315.062 511.387C315.271 511.169 315.629 511.217 315.791 511.47C316.241 512.178 316.66 513.544 314.595 514.897C311.626 516.858 307.509 516.129 307.509 516.129Z" fill="#FF7955"/>
<path d="M349.631 517.592C349.631 517.592 362.104 518.273 364.553 519.959C367.003 521.64 374.176 530.967 372.298 532.19C370.421 533.412 363.165 527.937 359.227 527.155C355.293 526.369 351.748 527.229 349.177 525.897C346.605 524.566 344.139 522.531 344.139 522.531L349.631 517.592Z" fill="#FF7955"/>
<path d="M263.951 684.97H213.206C210.766 681.992 211.665 670.997 212.036 667.407C212.111 666.683 212.163 666.263 212.163 666.263C212.163 666.263 229.491 652.4 231.87 663.015C231.945 663.347 232.032 663.674 232.128 663.993C235.127 673.922 248.579 678.433 256.345 679.691C261.392 680.511 263.261 683.136 263.951 684.97Z" fill="#1B3051"/>
<path d="M125.484 520.05C127.317 520.05 212.412 536.032 226.488 553.454C233.521 562.161 234.565 662.696 234.565 662.696C234.565 662.696 225.863 673.485 207.077 667.219C207.077 667.219 193.303 598.434 194.32 577.57C194.6 571.802 136.18 576.736 125.488 573.968C114.796 571.2 88.6662 547.935 94.4248 536.599C100.175 525.268 125.484 520.05 125.484 520.05Z" fill="#233862"/>
<path d="M187.094 515.326C187.094 515.326 192.539 520.025 198.127 521.356C201.314 522.116 204.396 522.976 206.234 523.819C211.286 526.138 220.873 536.495 219.982 537.521C217.123 540.822 205.614 532.225 203.41 532.832C201.209 533.438 207.02 538.434 204.715 539.792C203.51 540.499 201.24 536.185 199.118 535.578C196.245 534.757 194.337 530.417 193.477 530.12C191.801 529.544 184.811 523.273 184.811 523.273L187.094 515.326Z" fill="#FF7955"/>
<path d="M286.379 684.97H235.634C233.194 681.992 234.093 670.997 234.464 667.407C234.538 666.683 234.591 666.263 234.591 666.263C234.591 666.263 251.919 652.4 254.298 663.015C254.372 663.347 254.46 663.674 254.556 663.993C257.555 673.922 271.006 678.433 278.773 679.691C283.824 680.511 285.689 683.136 286.379 684.97Z" fill="#1E3C68"/>
<path d="M150.556 520.05C152.39 520.05 237.485 536.032 251.561 553.454C258.594 562.161 259.637 662.696 259.637 662.696C259.637 662.696 250.936 673.485 232.15 667.219C232.15 667.219 218.376 598.434 219.393 577.57C219.672 571.802 161.253 576.736 150.561 573.968C139.869 571.2 113.743 547.935 119.497 536.599C125.252 525.268 150.556 520.05 150.556 520.05Z" fill="#2B478B"/>
<path d="M145.23 416.625C139.109 416.119 132.691 414.49 127.142 412.687C120.209 410.438 114.617 407.145 118.218 400.81C121.537 394.967 126.911 381.916 126.549 371.104L139.454 381.505L148.221 388.57C148.221 388.57 148.186 392.736 147.225 400.032C147.051 401.364 146.845 402.801 146.605 404.333C146.409 405.574 146.981 406.809 148.046 407.473C148.112 407.512 148.177 407.556 148.243 407.595C152.6 410.333 150.36 417.049 145.23 416.625Z" fill="#FF7955"/>
<path d="M148.221 386.85C148.221 386.85 148.671 388.361 147.898 393.945C140.083 392.67 132.779 386.435 132.779 386.435C136.756 385.343 138.206 381.042 141.166 381.444L148.221 386.85Z" fill="#ED975D"/>
<path d="M155.446 388.12C155.446 388.12 125.387 393.115 122.567 374.343C119.746 355.576 113.966 343.577 133.036 339.595C152.106 335.612 156.922 342.215 159.389 348.249C161.855 354.288 163.196 386.338 155.446 388.12Z" fill="#FF7955"/>
<path d="M163.811 339.949C165.104 344.468 161.646 349.974 155.848 351.787C147.239 354.476 149.142 365.039 145.27 364.895C141.397 364.751 139.834 358.825 136.372 363.559C133.421 367.598 138.83 372.383 138.455 374.602C137.817 378.405 131.862 386.182 126.492 385.793C121.126 385.404 111.085 359.895 113.093 352.005C115.102 344.115 123.135 335.792 130.74 334.644C138.345 333.495 148.902 336.779 151.343 336.779C153.783 336.774 163.113 337.504 163.811 339.949Z" fill="#2B478B"/>
<path d="M171.268 514.422C170.766 518.754 169.854 521.701 168.422 522.657C163.942 525.657 158 529.391 151.368 533.085C127.858 546.197 95.6688 558.852 89.12 536.691C81.4274 510.663 86.483 461.788 94.0229 431.432C98.3625 413.944 110.373 395.592 118.494 395.614C132.329 395.635 152.215 399.29 160.244 419.101C163.353 426.777 167.924 453.37 170.255 477.735C171.644 492.249 172.237 505.969 171.268 514.422Z" fill="white"/>
<path d="M117.096 395.784L120.227 388.728C120.227 388.728 147.998 391.557 152.709 407.517C152.713 407.512 131.246 396.124 117.096 395.784Z" fill="#DFEBFD"/>
<path d="M171.268 514.422C170.766 518.754 169.853 521.701 168.421 522.657C163.942 525.657 158 529.39 151.368 533.085C144.448 528.88 130.242 518.841 126.92 507.008C122.58 491.537 125.623 472.503 125.623 472.503L171.268 514.422Z" fill="#DFEBFD"/>
<path d="M122.729 419.586C122.729 419.586 125.138 486.066 128.919 499.214C135.363 521.627 194.154 529.609 194.154 529.609C194.154 529.609 197.621 525.679 196.071 519.16C196.071 519.16 160.925 491.454 159.895 486.18C158.869 480.905 167.553 445.16 157.625 432.161C147.701 419.167 129.4 407.905 122.729 419.586Z" fill="white"/>
<path d="M49.0284 684.336L48.8363 684.332C47.2515 684.302 46.0291 683.009 46.1819 681.52L56.7429 576.029L65.9592 576.85L50.7922 682.909C50.67 683.738 49.9103 684.354 49.0284 684.336Z" fill="#77A4E5"/>
<path d="M103.387 684.336L103.195 684.332C101.61 684.302 100.388 683.009 100.541 681.52L111.102 576.029L120.318 576.85L105.151 682.909C105.029 683.738 104.274 684.354 103.387 684.336Z" fill="#77A4E5"/>
<path d="M205.44 684.336L205.632 684.332C207.217 684.302 208.439 683.009 208.291 681.52L197.73 576.029L188.513 576.85L203.68 682.909C203.798 683.738 204.558 684.354 205.44 684.336Z" fill="#77A4E5"/>
<path d="M52.0101 561.087L41.9861 472.979C40.6719 460.282 44.9199 447.85 63.2391 446.89L95.4679 444.925C114.569 444.134 123.196 460.037 125.614 472.276L144.745 569.13L52.0101 561.087Z" fill="#77A4E5"/>
<path d="M57.3978 577.571H200.441C203.314 577.571 205.667 575.217 205.667 572.344V565.908C205.667 563.034 203.314 560.681 200.441 560.681H52.1719V572.344C52.1719 575.221 54.5251 577.571 57.3978 577.571Z" fill="#77A4E5"/>
<path d="M56.2321 577.571H140.694C142.925 577.571 144.754 575.745 144.754 573.514V564.746C144.754 562.515 142.929 560.69 140.694 560.69H52.1719V573.519C52.1719 575.745 53.9968 577.571 56.2321 577.571Z" fill="#77A4E5"/>
<path d="M1282.2 688.864H8.89737C7.90632 688.864 7.09863 688.056 7.09863 687.065V685.428C7.09863 684.441 7.90632 683.629 8.89737 683.629H1282.2C1283.19 683.629 1284 684.437 1284 685.428V687.065C1284 688.056 1283.19 688.864 1282.2 688.864Z" fill="#2E3552"/>
<path d="M278.677 293.445H229.159C226.885 293.445 225.025 291.585 225.025 289.31V241.51C225.025 239.235 226.885 237.375 229.159 237.375H278.677C280.952 237.375 282.811 239.235 282.811 241.51V289.31C282.811 291.585 280.952 293.445 278.677 293.445Z" fill="#77A4E5"/>
<path d="M276.533 291.017H231.307C229.229 291.017 227.531 289.319 227.531 287.24V243.58C227.531 241.501 229.229 239.802 231.307 239.802H276.533C278.611 239.802 280.31 241.501 280.31 243.58V287.24C280.31 289.314 278.611 291.017 276.533 291.017Z" fill="#DFEBFD"/>
<path d="M253.918 246.116C254.579 246.116 255.114 245.581 255.114 244.92C255.114 244.259 254.579 243.724 253.918 243.724C253.257 243.724 252.722 244.259 252.722 244.92C252.722 245.581 253.257 246.116 253.918 246.116Z" fill="#77A4E5"/>
<path d="M262.379 246.614C262.702 246.038 263.427 245.828 264.008 246.151C264.584 246.474 264.793 247.199 264.47 247.78C264.147 248.356 263.422 248.566 262.842 248.242C262.266 247.919 262.06 247.19 262.379 246.614Z" fill="#77A4E5"/>
<path d="M270.657 253.191C271.211 252.833 271.953 252.994 272.311 253.549C272.669 254.103 272.508 254.845 271.953 255.203C271.399 255.561 270.657 255.4 270.299 254.845C269.941 254.291 270.098 253.549 270.657 253.191Z" fill="#77A4E5"/>
<path d="M274.756 263.365C275.416 263.365 275.953 263.901 275.953 264.561C275.953 265.22 275.416 265.757 274.756 265.757C274.097 265.757 273.56 265.22 273.56 264.561C273.556 263.901 274.093 263.365 274.756 263.365Z" fill="#77A4E5"/>
<path d="M271.814 277.219C272.475 277.219 273.01 276.684 273.01 276.023C273.01 275.362 272.475 274.827 271.814 274.827C271.153 274.827 270.618 275.362 270.618 276.023C270.618 276.684 271.153 277.219 271.814 277.219Z" fill="#77A4E5"/>
<path d="M265.143 282.713C265.61 283.18 265.61 283.939 265.143 284.407C264.676 284.874 263.916 284.874 263.449 284.407C262.982 283.939 262.982 283.18 263.449 282.713C263.921 282.246 264.676 282.246 265.143 282.713Z" fill="#77A4E5"/>
<path d="M253.918 287.795C254.579 287.795 255.114 287.259 255.114 286.599C255.114 285.938 254.579 285.402 253.918 285.402C253.257 285.402 252.722 285.938 252.722 286.599C252.722 287.259 253.257 287.795 253.918 287.795Z" fill="#77A4E5"/>
<path d="M245.418 246.614C245.094 246.038 244.37 245.828 243.789 246.151C243.213 246.474 243.003 247.199 243.326 247.78C243.649 248.356 244.374 248.566 244.955 248.242C245.531 247.919 245.741 247.19 245.418 246.614Z" fill="#77A4E5"/>
<path d="M237.144 253.191C236.59 252.833 235.847 252.994 235.489 253.549C235.131 254.103 235.289 254.845 235.847 255.203C236.402 255.561 237.144 255.4 237.502 254.845C237.86 254.291 237.699 253.549 237.144 253.191Z" fill="#77A4E5"/>
<path d="M233.045 263.365C232.386 263.365 231.849 263.901 231.849 264.561C231.849 265.22 232.386 265.757 233.045 265.757C233.704 265.757 234.241 265.22 234.241 264.561C234.241 263.901 233.708 263.365 233.045 263.365Z" fill="#77A4E5"/>
<path d="M235.983 277.219C236.644 277.219 237.18 276.684 237.18 276.023C237.18 275.362 236.644 274.827 235.983 274.827C235.323 274.827 234.787 275.362 234.787 276.023C234.787 276.684 235.323 277.219 235.983 277.219Z" fill="#77A4E5"/>
<path d="M242.654 282.713C242.187 283.18 242.187 283.939 242.654 284.407C243.121 284.874 243.881 284.874 244.348 284.407C244.815 283.939 244.815 283.18 244.348 282.713C243.881 282.246 243.121 282.246 242.654 282.713Z" fill="#77A4E5"/>
<path d="M253.595 264.565C253.595 263.906 254.132 263.369 254.791 263.369C255.45 263.369 255.987 263.906 255.987 264.565C255.987 265.224 255.45 265.761 254.791 265.761C254.132 265.761 253.595 265.224 253.595 264.565Z" fill="#77A4E5"/>
<path d="M254.957 249.606H254.629V264.561H254.957V249.606Z" fill="#77A4E5"/>
<path d="M262.281 257.916L254.354 264.138L254.961 264.91L262.887 258.688L262.281 257.916Z" fill="#77A4E5"/>
</svg>
