<svg width="190" height="34" viewBox="0 0 190 34" fill="none" xmlns="http://www.w3.org/2000/svg">
<path d="M79.6024 18.4291H68.1413V26.8094H81.5381V30.588H63.2925V3.35205H81.4039V7.16807H68.1413V14.6879H79.6024V18.4291Z" fill="white"/>
<path d="M97.6734 24.6582L104.765 3.35205H110.093L100.05 30.588H95.3544L85.3499 3.35205H90.6587L97.6734 24.6582Z" fill="white"/>
<path d="M131.919 18.4291H120.459V26.8094H133.856V30.588H115.61V3.35205H133.721V7.16807H120.459V14.6879H131.919V18.4291Z" fill="white"/>
<path d="M162.295 30.588H157.446L145.007 11.2647V30.588H140.158V3.35205H145.007L157.484 22.7501V3.35205H162.295V30.588Z" fill="white"/>
<path d="M189.968 7.16807H181.267V30.588H176.456V7.16807H167.832V3.35205H189.968V7.16807Z" fill="white"/>
<path fill-rule="evenodd" clip-rule="evenodd" d="M0.348886 0.300858C0.892806 0.76931 4.39771 3.89836 5.29445 4.71622L6.10017 5.45098L10.737 5.49175C15.3365 5.53221 15.3828 5.53483 16.471 5.82181C17.7733 6.16509 19.4488 6.91537 20.407 7.58443C21.2041 8.14077 22.5197 9.44184 23.0435 10.1918C25.1384 13.1903 25.6602 17.5458 24.3656 21.229C23.8204 22.7807 23.0902 23.9089 21.8264 25.1523C20.1766 26.7758 18.4188 27.7066 16.0472 28.2132C15.027 28.4311 14.5218 28.4575 10.4924 28.5035L6.05977 28.5543L5.04981 29.4446C4.49433 29.9344 3.83785 30.5188 3.59098 30.7435C3.3441 30.9681 2.4514 31.7559 1.60719 32.4938C0.76297 33.2319 0.0685651 33.8725 0.0641886 33.9176C0.051508 34.0468 13.6536 34.0154 15.0457 33.883C23.4373 33.0851 29.5557 28.0323 31.1872 20.5529L31.4377 19.4049L39.9908 19.3769L48.5438 19.3489L51.5321 16.7531L54.5203 14.1574L42.9447 14.1295L31.4009 14.1268L31.3066 13.8016C30.5477 10.1482 28.9812 7.27122 26.4685 4.91628C24.0032 2.60562 21.1279 1.16178 17.3938 0.359455L16.0472 0.0700763L8.02358 0.0353113L0 0.000546318L0.348886 0.300858ZM29.0699 0.464626C29.3679 0.720223 30.7484 1.92541 32.1376 3.14305L34.6634 5.35686H44.5165H54.3696V2.67842V0H41.4487H28.5278L29.0699 0.464626ZM31.5455 31.3006L28.5278 33.9449L41.4768 33.9731C48.5987 33.9886 54.4889 33.9778 54.5659 33.9492C54.6728 33.9095 54.7063 33.271 54.7063 31.2699V28.6427L44.6347 28.6495L34.5632 28.6563L31.5455 31.3006Z" fill="white"/>
<path d="M31.4052 19.3943C31.7988 17.7183 31.5649 15.1842 31.4009 14.1267H54.5879L48.6232 19.3943H31.4052Z" fill="white"/>
</svg>
