<svg width="1576" height="913" viewBox="0 0 1576 913" fill="none" xmlns="http://www.w3.org/2000/svg">
<g clip-path="url(#clip0_35_231)">
<path d="M785.615 912.243C1173.9 912.243 1488.66 857.697 1488.66 790.412C1488.66 723.128 1173.9 668.583 785.615 668.583C397.331 668.583 82.5649 723.128 82.5649 790.412C82.5649 857.697 397.331 912.243 785.615 912.243Z" fill="#EAEAEA"/>
<path d="M663.335 138.123C651.495 145.293 645.665 143.663 642.805 139.023C639.945 134.383 641.155 128.493 652.985 121.323C674.545 108.263 690.135 110.353 690.135 110.353C690.135 110.353 685.205 124.883 663.335 138.123Z" fill="#364154"/>
<path d="M664.015 461.233L661.385 461.043C661.415 460.643 663.865 420.083 648.935 360.933C635.165 306.353 603.355 224.313 530.045 143.463L531.995 141.713C605.715 223.013 637.685 305.523 651.525 360.423C666.525 419.943 664.045 460.823 664.015 461.233Z" fill="#364154"/>
<path d="M604.665 244.063L602.415 242.683C652.235 161.893 619.135 65.0627 618.795 64.0927L621.275 63.2427C621.635 64.2327 655.145 162.203 604.665 244.063Z" fill="#364154"/>
<path d="M564.165 202.103C537.455 202.463 516.985 189.423 516.745 189.263L518.165 187.073C518.425 187.243 544.655 203.923 576.125 198.353L576.605 200.933C572.355 201.693 568.185 202.053 564.165 202.103Z" fill="#364154"/>
<path d="M527.985 128.883C542.165 141.193 543.495 148.163 539.935 152.233C536.375 156.313 529.265 155.953 515.085 143.643C489.255 121.213 483.225 102.993 483.225 102.993C483.225 102.993 501.775 106.133 527.985 128.883Z" fill="#364154"/>
<path d="M523.625 180.713C540.845 188.223 544.215 194.483 542.055 199.443C539.905 204.413 533.035 206.203 515.815 198.693C484.455 185.013 473.195 169.413 473.195 169.413C473.195 169.413 491.805 166.833 523.625 180.713Z" fill="#364154"/>
<path d="M590.185 160.023C593.635 173.453 590.385 178.513 585.115 179.813C579.835 181.123 574.535 178.183 571.075 164.763C564.785 140.303 571.295 126.103 571.295 126.103C571.295 126.103 583.805 135.203 590.185 160.023Z" fill="#364154"/>
<path d="M626.615 52.5627C631.365 70.6527 628.505 77.1127 623.235 78.4527C617.965 79.7927 612.285 75.4927 607.525 57.4027C598.875 24.4527 604.235 6.11267 604.235 6.11267C604.235 6.11267 617.835 19.1327 626.615 52.5627Z" fill="#364154"/>
<g opacity="0.6">
<path opacity="0.6" d="M1155.63 387.483C1206.21 254.233 1286.25 87.9526 1363.64 113.073C1456.89 143.343 1326.35 289.593 1237.13 419.983C1205.12 466.753 1123.39 472.403 1155.63 387.483Z" fill="#D5D6DA"/>
</g>
<g opacity="0.6">
<path opacity="0.6" d="M1231.79 531.603C1312.39 450.633 1425.35 355.123 1473.76 398.813C1532.1 451.463 1388.73 515.803 1280.79 582.033C1242.07 605.793 1180.43 583.203 1231.79 531.603Z" fill="#D5D6DA"/>
</g>
<path d="M1494.17 661.203C1445.41 672.323 1454.36 746.213 1398.51 733.113C1351.28 722.003 1347.25 717.703 1331.1 731.453C1325.56 736.163 1320.81 741.713 1316.8 747.793C1312 755.073 1302.72 765.813 1288.44 768.483C1201.21 784.793 1080.28 656.873 1170.66 584.633C1177.19 579.413 1186.74 577.333 1197.33 575.553C1254.79 565.933 1273.02 592.153 1317.6 523.823C1362.2 455.473 1424.83 552.053 1463.39 548.203C1501.95 544.353 1535.84 532.393 1566.37 572.963C1596.91 613.553 1542.93 650.113 1494.17 661.203Z" fill="#D5D6DA"/>
<path d="M1199.55 678.353L1197.69 675.643C1198.88 674.823 1320.05 593.213 1573.44 584.493L1573.54 587.783C1321.11 596.473 1200.73 677.533 1199.55 678.353Z" fill="white"/>
<path d="M1356.17 578.733C1322.41 549.013 1316.26 525.193 1316.01 524.193L1319.2 523.403C1319.26 523.643 1325.42 547.303 1358.33 576.253L1356.17 578.733Z" fill="white"/>
<path d="M1362.35 614.152C1352.78 597.702 1353.4 573.843 1364.16 545.143C1372.22 523.653 1383.23 506.743 1383.34 506.573L1386.09 508.372C1385.66 509.032 1343.18 574.673 1365.19 612.493L1362.35 614.152Z" fill="white"/>
<path d="M1428.99 607.693C1424.97 604.403 1422.8 602.262 1422.7 602.172L1425.03 599.853C1425.48 600.313 1471.33 645.333 1538.22 642.583L1538.34 645.863C1484.44 648.083 1443.95 619.943 1428.99 607.693Z" fill="white"/>
<path d="M1462.7 683.382C1447.24 666.512 1442.7 649.532 1441.61 638.262C1440.42 625.992 1442.9 617.802 1443 617.462L1446.14 618.432C1446.04 618.742 1436.82 650.272 1465.12 681.162L1462.7 683.382Z" fill="white"/>
<path d="M728.585 171.493C727.595 161.363 731.715 157.923 737.165 157.393C742.615 156.863 747.325 159.443 748.315 169.563C750.115 188.013 741.125 197.883 741.125 197.883C741.125 197.883 730.415 190.203 728.585 171.493Z" fill="#364154"/>
<path d="M1467.46 499.163C1477.04 495.743 1481.38 498.903 1483.22 504.053C1485.06 509.203 1483.69 514.403 1474.11 517.823C1456.66 524.053 1444.9 517.743 1444.9 517.743C1444.9 517.743 1449.75 505.493 1467.46 499.163Z" fill="#364154"/>
<path d="M1441.18 146.743C1448.24 139.423 1453.54 140.323 1457.48 144.123C1461.42 147.923 1462.51 153.183 1455.45 160.503C1442.59 173.843 1429.24 173.413 1429.24 173.413C1429.24 173.413 1428.13 160.273 1441.18 146.743Z" fill="#364154"/>
<g opacity="0.6">
<path opacity="0.6" d="M1313.97 328.463C1327.58 326.223 1332.34 329.883 1333.22 335.213C1334.1 340.543 1330.76 345.533 1317.15 347.773C1292.36 351.853 1278.79 344.173 1278.79 344.173C1278.79 344.173 1288.82 332.603 1313.97 328.463Z" fill="#D5D6DA"/>
</g>
<g opacity="0.6">
<path opacity="0.6" d="M1283.42 298.883C1290.82 288.223 1296.39 287.403 1300.57 290.303C1304.75 293.203 1305.93 298.723 1298.54 309.383C1285.07 328.793 1271 332.933 1271 332.933C1271 332.933 1269.74 318.583 1283.42 298.883Z" fill="#D5D6DA"/>
</g>
<path d="M820.355 18.1826C820.355 18.1826 809.675 -2.34738 782.665 0.222618C755.655 2.79262 758.865 23.3726 746.005 21.4426C733.145 19.5126 715.135 21.4426 711.275 34.3026C707.415 47.1626 690.055 40.0926 689.405 51.0226C688.765 61.9526 709.345 69.6726 733.135 60.0226C756.935 50.3726 768.505 67.5127 801.955 64.4127C835.395 61.3127 839.545 57.4526 859.335 59.3826C879.125 61.3126 878.665 47.7626 869.655 38.7526C860.655 29.7626 824.205 30.6226 820.355 18.1826Z" fill="#EAEAEA"/>
<path d="M1163.88 40.4127C1163.88 40.4127 1155.91 25.0727 1135.72 26.9927C1115.53 28.9127 1117.93 44.2927 1108.31 42.8527C1098.7 41.4127 1085.24 42.8527 1082.35 52.4627C1079.47 62.0727 1066.5 56.7927 1066.02 64.9627C1065.54 73.1327 1080.92 78.9027 1098.7 71.6927C1116.48 64.4827 1125.13 77.2927 1150.12 74.9727C1175.11 72.6527 1178.22 69.7727 1193.01 71.2127C1207.8 72.6527 1207.45 62.5227 1200.72 55.7927C1194.02 49.0627 1166.77 49.7127 1163.88 40.4127Z" fill="#EAEAEA"/>
<path d="M991.645 95.9527C991.645 95.9527 979.495 72.5827 948.745 75.5127C918.005 78.4427 921.665 101.863 907.015 99.6727C892.375 97.4727 871.875 99.6727 867.485 114.313C863.095 128.953 843.325 120.903 842.595 133.343C841.865 145.783 865.285 154.573 892.375 143.593C919.455 132.613 932.635 152.123 970.705 148.593C1008.78 145.063 1013.49 140.663 1036.02 142.863C1058.55 145.063 1058.02 129.633 1047.77 119.383C1037.52 109.133 996.035 110.113 991.645 95.9527Z" fill="#EAEAEA"/>
<path d="M599.345 454.023C599.345 454.023 402.105 57.1925 295.505 114.293C188.905 171.403 487.095 351.173 540.825 468.503L599.345 454.023Z" fill="#D5D6DA"/>
<path d="M497.995 393.433C497.995 393.433 221.895 46.7726 109.355 128.833C-3.18516 210.883 357.485 318.163 433.935 421.743L497.995 393.433Z" fill="#1976D2"/>
<path d="M462.305 409.573C410.815 337.083 330.165 276.492 271.585 238.422C208.065 197.152 156.105 172.753 155.595 172.503L157.115 169.302C157.635 169.542 209.825 194.053 273.545 235.463C332.395 273.703 413.415 334.593 465.225 407.533L462.305 409.573Z" fill="#158EF7"/>
<path d="M489.685 619.453C444.785 618.603 491.935 663.733 438.215 665.183C371.115 659.333 343.595 628.293 334.025 613.133C329.055 605.263 323.215 597.963 316.435 591.573C295.865 572.183 290.175 577.583 226.245 588.843C172.005 598.363 165.645 551.003 142.625 516.723C142.215 516.093 141.785 515.473 141.355 514.853C132.475 502.163 121.065 491.493 103.725 486.563C85.335 481.333 66.535 473.343 50.075 463.353C48.705 462.533 47.355 461.693 46.015 460.823C13.395 439.893 -8.59506 411.093 3.24494 381.293C3.52494 380.583 3.81496 379.883 4.13496 379.183C6.35496 374.253 9.52505 369.293 13.725 364.353C57.525 312.843 101.935 331.163 153.175 339.103C181.515 343.483 221.935 307.743 261.645 290.743C262.215 290.503 262.785 290.263 263.355 290.023C294.885 276.963 325.845 276.273 349.805 317.473C349.805 317.483 349.815 317.483 349.815 317.483C350.305 318.323 350.785 319.143 351.265 319.963C404.815 410.693 431.315 378.033 506.715 394.843C520.735 397.983 533.365 401.443 541.705 408.843C619.475 477.733 567.285 573.073 489.685 619.453Z" fill="#D5D6DA"/>
<path d="M496.185 530.873L498.875 527.423C497.345 526.243 341.445 409.243 3.46497 379.103L3.06494 383.453C339.785 413.473 494.665 529.703 496.185 530.873Z" fill="white"/>
<path d="M294.255 387.403C341.575 350.503 351.555 319.393 351.955 318.093L347.745 316.813C347.655 317.123 337.645 348.013 291.535 383.973L294.255 387.403Z" fill="white"/>
<path d="M283.375 433.883C297.385 412.793 298.315 381.123 286.065 342.313C276.885 313.243 263.415 290.043 263.275 289.813L259.465 292.003C259.995 292.903 311.915 382.983 279.695 431.493L283.375 433.883Z" fill="white"/>
<path d="M194.795 420.443C200.405 416.383 203.465 413.703 203.605 413.583L200.665 410.333C200.025 410.903 135.435 467.193 46.2449 458.643L45.825 462.983C117.695 469.883 173.895 435.563 194.795 420.443Z" fill="white"/>
<path d="M144.155 518.253C166.065 497.033 173.395 474.873 175.685 460.023C178.175 443.853 175.475 432.823 175.365 432.353L171.095 433.413C171.205 433.833 181.195 476.283 141.085 515.133L144.155 518.253Z" fill="white"/>
<path d="M137.055 298.433C122.265 295.113 118.945 289.473 120.275 283.713C121.605 277.963 127.075 274.283 141.865 277.603C168.795 283.643 179.415 296.973 179.415 296.973C179.415 296.973 164.375 304.563 137.055 298.433Z" fill="#364154"/>
<path d="M325.635 303.563L251.095 720.583C249.185 746.503 269.695 768.583 295.695 768.583H497.185L325.635 303.563Z" fill="#1976D2"/>
<path d="M330.265 344.833L266.325 720.583C264.415 746.503 284.925 768.583 310.925 768.583H512.415L330.265 344.833Z" fill="#657285"/>
<path d="M330.265 344.833L307.435 739.233C305.525 765.153 326.035 787.233 352.025 787.233H553.515L330.265 344.833Z" fill="#97A5AF"/>
<path d="M1220.53 796.713H465.065C446.445 796.713 430.295 783.823 426.165 765.673L337.815 377.953L330.265 344.833L325.265 322.873C319.575 297.893 338.555 274.113 364.175 274.113H1119.64C1138.26 274.113 1154.41 286.993 1158.54 305.143L1167.58 344.833L1175.13 377.953L1259.44 747.943C1265.12 772.913 1246.14 796.713 1220.53 796.713Z" fill="#B8C1C9"/>
<path d="M381.205 572.023C380.735 572.023 380.315 571.703 380.205 571.223L363.325 497.143C363.195 496.593 363.545 496.043 364.095 495.913C364.645 495.783 365.195 496.133 365.325 496.683L382.205 570.763C382.335 571.313 381.985 571.863 381.435 571.993C381.355 572.013 381.275 572.023 381.205 572.023Z" fill="#131F2D"/>
<path d="M572.685 797.733H464.475C445.245 797.733 428.835 784.643 424.575 765.893L385.995 596.583C385.865 596.033 386.215 595.483 386.765 595.353C387.315 595.223 387.865 595.573 387.995 596.123L426.575 765.433C430.625 783.243 446.215 795.673 464.475 795.673H572.685C573.255 795.673 573.715 796.133 573.715 796.703C573.705 797.273 573.245 797.733 572.685 797.733Z" fill="#131F2D"/>
<path d="M1167.58 344.833H330.265L325.265 322.873C319.575 297.893 338.555 274.113 364.175 274.113H1119.64C1138.26 274.113 1154.41 286.993 1158.54 305.143L1167.58 344.833Z" fill="#1976D2"/>
<path d="M705.155 453.673H654.015C647.455 453.673 640.665 448.353 638.845 441.793L624.725 390.653C622.915 384.093 626.765 378.773 633.325 378.773H684.465C691.025 378.773 697.815 384.093 699.635 390.653L713.755 441.793C715.565 448.353 711.715 453.673 705.155 453.673Z" fill="#EAEAEA"/>
<path d="M802.695 453.673H751.555C744.995 453.673 738.205 448.353 736.385 441.793L722.265 390.653C720.455 384.093 724.305 378.773 730.865 378.773H782.005C788.565 378.773 795.355 384.093 797.175 390.653L811.295 441.793C813.105 448.353 809.255 453.673 802.695 453.673Z" fill="#EAEAEA"/>
<path d="M900.225 453.673H849.085C842.525 453.673 835.735 448.353 833.915 441.793L819.795 390.653C817.985 384.093 821.835 378.773 828.395 378.773H879.535C886.095 378.773 892.885 384.093 894.705 390.653L908.825 441.793C910.645 448.353 906.795 453.673 900.225 453.673Z" fill="#EAEAEA"/>
<path d="M536.855 550.653H485.715C479.155 550.653 472.365 545.333 470.545 538.773L456.425 487.633C454.615 481.073 458.465 475.753 465.025 475.753H516.165C522.725 475.753 529.515 481.073 531.335 487.633L545.455 538.773C547.275 545.333 543.425 550.653 536.855 550.653Z" fill="#EAEAEA"/>
<path d="M634.395 550.653H583.255C576.695 550.653 569.905 545.333 568.085 538.773L553.965 487.633C552.155 481.073 556.005 475.753 562.565 475.753H613.705C620.265 475.753 627.055 481.073 628.875 487.633L642.995 538.773C644.805 545.333 640.955 550.653 634.395 550.653Z" fill="#EAEAEA"/>
<path d="M731.925 550.653H680.785C674.225 550.653 667.435 545.333 665.615 538.773L651.495 487.633C649.685 481.073 653.535 475.753 660.095 475.753H711.235C717.795 475.753 724.585 481.073 726.405 487.633L740.525 538.773C742.345 545.333 738.495 550.653 731.925 550.653Z" fill="#EAEAEA"/>
<path d="M829.465 550.653H778.325C771.765 550.653 764.975 545.333 763.155 538.773L749.035 487.633C747.225 481.073 751.075 475.753 757.635 475.753H808.775C815.335 475.753 822.125 481.073 823.945 487.633L838.065 538.773C839.885 545.333 836.025 550.653 829.465 550.653Z" fill="#EAEAEA"/>
<path d="M927.005 550.653H875.865C869.305 550.653 862.515 545.333 860.695 538.773L846.575 487.633C844.765 481.073 848.615 475.753 855.175 475.753H906.315C912.875 475.753 919.665 481.073 921.485 487.633L935.605 538.773C937.415 545.333 933.565 550.653 927.005 550.653Z" fill="#EAEAEA"/>
<path d="M563.635 647.623H512.495C505.935 647.623 499.145 642.303 497.325 635.743L483.205 584.603C481.395 578.043 485.245 572.723 491.805 572.723H542.945C549.505 572.723 556.295 578.043 558.115 584.603L572.235 635.743C574.045 642.303 570.195 647.623 563.635 647.623Z" fill="#EAEAEA"/>
<path d="M661.165 647.623H610.025C603.465 647.623 596.675 642.303 594.855 635.743L580.735 584.603C578.925 578.043 582.775 572.723 589.335 572.723H640.475C647.035 572.723 653.825 578.043 655.645 584.603L669.765 635.743C671.585 642.303 667.735 647.623 661.165 647.623Z" fill="#EAEAEA"/>
<path d="M758.705 647.623H707.565C701.005 647.623 694.215 642.303 692.395 635.743L678.275 584.603C676.465 578.043 680.315 572.723 686.875 572.723H738.015C744.575 572.723 751.365 578.043 753.185 584.603L767.305 635.743C769.115 642.303 765.265 647.623 758.705 647.623Z" fill="#EAEAEA"/>
<path d="M856.235 647.623H805.095C798.535 647.623 791.745 642.303 789.925 635.743L775.805 584.603C773.995 578.043 777.845 572.723 784.405 572.723H835.545C842.105 572.723 848.895 578.043 850.715 584.603L864.835 635.743C866.655 642.303 862.805 647.623 856.235 647.623Z" fill="#EAEAEA"/>
<path d="M953.775 647.623H902.635C896.075 647.623 889.285 642.303 887.465 635.743L873.345 584.603C871.535 578.043 875.385 572.723 881.945 572.723H933.085C939.645 572.723 946.435 578.043 948.255 584.603L962.375 635.743C964.195 642.303 960.335 647.623 953.775 647.623Z" fill="#EAEAEA"/>
<path d="M997.765 453.673H946.625C940.065 453.673 933.275 448.353 931.455 441.793L917.335 390.653C915.525 384.093 919.375 378.773 925.935 378.773H977.075C983.635 378.773 990.425 384.093 992.245 390.653L1006.36 441.793C1008.17 448.353 1004.33 453.673 997.765 453.673Z" fill="#1976D2"/>
<path d="M1095.29 453.673H1044.15C1037.59 453.673 1030.81 448.353 1028.99 441.793L1014.86 390.653C1013.05 384.093 1016.91 378.773 1023.47 378.773H1074.6C1081.16 378.773 1087.96 384.093 1089.78 390.653L1103.89 441.793C1105.71 448.353 1101.86 453.673 1095.29 453.673Z" fill="#1976D2"/>
<path d="M1024.54 550.653H973.395C966.835 550.653 960.045 545.333 958.225 538.773L944.105 487.633C942.295 481.073 946.145 475.753 952.705 475.753H1003.84C1010.4 475.753 1017.2 481.073 1019.02 487.633L1033.13 538.773C1034.95 545.333 1031.11 550.653 1024.54 550.653Z" fill="#1976D2"/>
<path d="M1122.07 550.653H1070.94C1064.38 550.653 1057.59 545.333 1055.77 538.773L1041.64 487.633C1039.83 481.073 1043.69 475.753 1050.25 475.753H1101.38C1107.94 475.753 1114.73 481.073 1116.55 487.633L1130.68 538.773C1132.49 545.333 1128.63 550.653 1122.07 550.653Z" fill="#1976D2"/>
<path d="M1051.31 647.623H1000.18C993.615 647.623 986.825 642.303 985.005 635.743L970.885 584.603C969.075 578.043 972.925 572.723 979.485 572.723H1030.62C1037.18 572.723 1043.97 578.043 1045.79 584.603L1059.92 635.743C1061.73 642.303 1057.87 647.623 1051.31 647.623Z" fill="#1976D2"/>
<path d="M1148.84 647.623H1097.71C1091.15 647.623 1084.36 642.303 1082.54 635.743L1068.42 584.603C1066.61 578.043 1070.46 572.723 1077.02 572.723H1128.15C1134.71 572.723 1141.5 578.043 1143.32 584.603L1157.45 635.743C1159.27 642.303 1155.41 647.623 1148.84 647.623Z" fill="#1976D2"/>
<path d="M591.685 749.223H540.545C533.985 749.223 527.195 743.903 525.375 737.343L511.255 686.203C509.445 679.643 513.295 674.323 519.855 674.323H570.995C577.555 674.323 584.345 679.643 586.165 686.203L600.285 737.343C602.095 743.903 598.245 749.223 591.685 749.223Z" fill="#EAEAEA"/>
<path d="M689.215 749.223H638.075C631.515 749.223 624.725 743.903 622.905 737.343L608.785 686.203C606.975 679.643 610.825 674.323 617.385 674.323H668.525C675.085 674.323 681.875 679.643 683.695 686.203L697.815 737.343C699.635 743.903 695.785 749.223 689.215 749.223Z" fill="#EAEAEA"/>
<path d="M786.755 749.223H735.615C729.055 749.223 722.265 743.903 720.445 737.343L706.325 686.203C704.515 679.643 708.365 674.323 714.925 674.323H766.065C772.625 674.323 779.415 679.643 781.235 686.203L795.355 737.343C797.165 743.903 793.315 749.223 786.755 749.223Z" fill="#EAEAEA"/>
<path d="M444.155 305.093C439.935 305.093 436.495 301.653 436.495 297.433C436.495 293.213 439.935 289.773 444.155 289.773C448.375 289.773 451.815 293.213 451.815 297.433C451.815 301.663 448.385 305.093 444.155 305.093ZM444.155 292.843C441.625 292.843 439.565 294.903 439.565 297.433C439.565 299.963 441.625 302.023 444.155 302.023C446.685 302.023 448.745 299.963 448.745 297.433C448.745 294.903 446.685 292.843 444.155 292.843Z" fill="#DAEBE8"/>
<path d="M443.955 299.323C443.275 299.323 442.625 298.933 442.325 298.273C441.915 297.373 442.315 296.313 443.215 295.903C443.395 295.823 461.245 287.603 464.455 273.883C466.025 267.193 463.845 260.143 457.965 252.943C451.505 245.023 436.215 241.703 422.785 250.133C411.105 257.463 407.985 270.083 414.425 283.873C414.845 284.773 414.455 285.833 413.565 286.253C412.675 286.673 411.605 286.283 411.185 285.393C407.325 277.133 406.505 269.363 408.725 262.293C410.665 256.133 414.875 250.883 420.885 247.103C432.635 239.723 451.215 238.993 460.745 250.673C467.365 258.783 469.785 266.873 467.945 274.703C466.435 281.143 461.905 287.413 454.875 292.853C449.645 296.893 444.895 299.063 444.695 299.153C444.445 299.273 444.195 299.323 443.955 299.323Z" fill="#131F2D"/>
<path d="M420.865 274.143H403.475V290.543H420.865V274.143Z" fill="#1976D2"/>
<path d="M560.015 305.093C555.795 305.093 552.355 301.653 552.355 297.433C552.355 293.213 555.795 289.773 560.015 289.773C564.235 289.773 567.675 293.213 567.675 297.433C567.685 301.663 564.245 305.093 560.015 305.093ZM560.015 292.843C557.485 292.843 555.425 294.903 555.425 297.433C555.425 299.963 557.485 302.023 560.015 302.023C562.545 302.023 564.605 299.963 564.605 297.433C564.615 294.903 562.555 292.843 560.015 292.843Z" fill="#DAEBE8"/>
<path d="M559.815 299.323C559.135 299.323 558.485 298.933 558.185 298.273C557.775 297.373 558.175 296.313 559.075 295.903C559.255 295.823 577.105 287.603 580.315 273.883C581.885 267.193 579.705 260.143 573.825 252.943C567.365 245.023 552.075 241.703 538.645 250.133C526.965 257.463 523.845 270.083 530.285 283.873C530.705 284.773 530.315 285.833 529.425 286.253C528.525 286.673 527.465 286.283 527.045 285.393C523.185 277.133 522.365 269.363 524.585 262.293C526.525 256.133 530.735 250.883 536.745 247.103C548.495 239.723 567.075 238.993 576.605 250.673C583.225 258.783 585.645 266.873 583.805 274.703C582.285 281.143 577.765 287.413 570.735 292.853C565.505 296.893 560.755 299.063 560.555 299.153C560.315 299.273 560.065 299.323 559.815 299.323Z" fill="#131F2D"/>
<path d="M536.725 274.143H519.335V290.543H536.725V274.143Z" fill="#1976D2"/>
<path d="M675.885 305.093C671.665 305.093 668.225 301.653 668.225 297.433C668.225 293.213 671.665 289.773 675.885 289.773C680.105 289.773 683.545 293.213 683.545 297.433C683.545 301.663 680.105 305.093 675.885 305.093ZM675.885 292.843C673.355 292.843 671.295 294.903 671.295 297.433C671.295 299.963 673.355 302.023 675.885 302.023C678.415 302.023 680.475 299.963 680.475 297.433C680.475 294.903 678.415 292.843 675.885 292.843Z" fill="#DAEBE8"/>
<path d="M675.675 299.323C674.995 299.323 674.345 298.933 674.045 298.273C673.635 297.373 674.035 296.313 674.935 295.903C675.115 295.823 692.965 287.603 696.175 273.883C697.745 267.193 695.565 260.143 689.685 252.943C683.225 245.023 667.935 241.703 654.505 250.133C642.825 257.463 639.705 270.083 646.145 283.873C646.565 284.773 646.175 285.833 645.285 286.253C644.395 286.673 643.325 286.283 642.905 285.393C639.045 277.133 638.225 269.363 640.445 262.293C642.385 256.133 646.595 250.883 652.605 247.103C664.355 239.723 682.935 238.993 692.465 250.673C699.085 258.783 701.505 266.873 699.665 274.703C698.145 281.143 693.625 287.413 686.595 292.853C681.365 296.893 676.615 299.063 676.415 299.153C676.175 299.273 675.925 299.323 675.675 299.323Z" fill="#131F2D"/>
<path d="M652.595 274.143H635.205V290.543H652.595V274.143Z" fill="#1976D2"/>
<path d="M791.745 305.093C787.525 305.093 784.085 301.653 784.085 297.433C784.085 293.213 787.525 289.773 791.745 289.773C795.965 289.773 799.405 293.213 799.405 297.433C799.405 301.663 795.965 305.093 791.745 305.093ZM791.745 292.843C789.215 292.843 787.155 294.903 787.155 297.433C787.155 299.963 789.215 302.023 791.745 302.023C794.275 302.023 796.335 299.963 796.335 297.433C796.335 294.903 794.275 292.843 791.745 292.843Z" fill="#DAEBE8"/>
<path d="M791.545 299.323C790.865 299.323 790.215 298.933 789.915 298.273C789.505 297.373 789.905 296.313 790.805 295.903C790.985 295.823 808.835 287.603 812.045 273.883C813.615 267.193 811.435 260.143 805.555 252.943C799.095 245.023 783.805 241.703 770.375 250.133C758.695 257.463 755.575 270.083 762.015 283.873C762.435 284.773 762.045 285.833 761.155 286.253C760.265 286.673 759.195 286.283 758.775 285.393C754.915 277.133 754.095 269.363 756.315 262.293C758.255 256.133 762.465 250.883 768.475 247.103C780.225 239.723 798.805 238.993 808.335 250.673C814.955 258.783 817.375 266.873 815.535 274.703C814.015 281.143 809.495 287.413 802.465 292.853C797.235 296.893 792.485 299.063 792.285 299.153C792.035 299.273 791.785 299.323 791.545 299.323Z" fill="#131F2D"/>
<path d="M768.455 274.143H751.065V290.543H768.455V274.143Z" fill="#1976D2"/>
<path d="M907.605 305.093C903.385 305.093 899.945 301.653 899.945 297.433C899.945 293.213 903.385 289.773 907.605 289.773C911.825 289.773 915.265 293.213 915.265 297.433C915.265 301.663 911.835 305.093 907.605 305.093ZM907.605 292.843C905.075 292.843 903.015 294.903 903.015 297.433C903.015 299.963 905.075 302.023 907.605 302.023C910.135 302.023 912.195 299.963 912.195 297.433C912.205 294.903 910.145 292.843 907.605 292.843Z" fill="#DAEBE8"/>
<path d="M907.405 299.323C906.725 299.323 906.075 298.933 905.775 298.273C905.365 297.373 905.765 296.313 906.665 295.903C906.845 295.823 924.695 287.603 927.905 273.883C929.475 267.193 927.295 260.143 921.415 252.943C914.955 245.023 899.665 241.703 886.235 250.133C874.555 257.463 871.435 270.083 877.875 283.873C878.295 284.773 877.905 285.833 877.015 286.253C876.125 286.673 875.055 286.283 874.635 285.393C870.775 277.133 869.955 269.363 872.175 262.293C874.115 256.133 878.325 250.883 884.335 247.103C896.085 239.723 914.665 238.993 924.195 250.673C930.815 258.783 933.235 266.873 931.395 274.703C929.875 281.143 925.355 287.413 918.325 292.853C913.095 296.893 908.345 299.063 908.145 299.153C907.905 299.273 907.655 299.323 907.405 299.323Z" fill="#131F2D"/>
<path d="M884.315 274.143H866.925V290.543H884.315V274.143Z" fill="#1976D2"/>
<path d="M1023.48 305.093C1019.26 305.093 1015.81 301.653 1015.81 297.433C1015.81 293.213 1019.26 289.773 1023.48 289.773C1027.7 289.773 1031.14 293.213 1031.14 297.433C1031.14 301.663 1027.7 305.093 1023.48 305.093ZM1023.48 292.843C1020.95 292.843 1018.89 294.903 1018.89 297.433C1018.89 299.963 1020.95 302.023 1023.48 302.023C1026.01 302.023 1028.06 299.963 1028.06 297.433C1028.06 294.903 1026.01 292.843 1023.48 292.843Z" fill="#DAEBE8"/>
<path d="M1023.27 299.323C1022.59 299.323 1021.94 298.933 1021.64 298.273C1021.23 297.373 1021.63 296.313 1022.53 295.903C1022.71 295.823 1040.56 287.603 1043.77 273.883C1045.34 267.193 1043.16 260.143 1037.28 252.943C1030.82 245.023 1015.53 241.703 1002.1 250.133C990.415 257.463 987.295 270.083 993.735 283.873C994.155 284.773 993.765 285.833 992.875 286.253C991.985 286.673 990.915 286.283 990.495 285.393C986.635 277.133 985.815 269.363 988.035 262.293C989.975 256.133 994.185 250.883 1000.2 247.103C1011.95 239.723 1030.53 238.993 1040.06 250.673C1046.68 258.783 1049.1 266.873 1047.25 274.703C1045.74 281.143 1041.21 287.413 1034.18 292.853C1028.95 296.893 1024.2 299.063 1024 299.153C1023.77 299.273 1023.52 299.323 1023.27 299.323Z" fill="#131F2D"/>
<path d="M1000.19 274.143H982.795V290.543H1000.19V274.143Z" fill="#1976D2"/>
<path d="M365.335 815.253C365.335 815.253 340.535 790.163 349.065 775.873C357.595 761.583 371.995 806.573 371.995 806.573C371.995 806.573 364.525 753.373 379.995 752.453C395.465 751.533 379.995 806.573 379.995 806.573C379.995 806.573 385.725 793.733 391.325 792.943C396.925 792.153 395.325 803.823 385.325 815.253H365.335V815.253Z" fill="#EAEAEA"/>
<path d="M367.115 815.893C367.045 815.823 359.945 808.603 354.145 799.483C346.215 787.043 344.335 777.163 348.535 770.123C350.105 767.493 351.985 766.283 354.135 766.533C358.415 767.023 363.435 773.733 369.065 786.463C370.785 790.353 372.305 794.233 373.495 797.453C372.125 783.553 370.545 755.843 378.235 746.433C379.915 744.373 381.975 743.263 384.345 743.123C386.655 742.993 388.545 743.813 389.975 745.583C396.885 754.163 390.615 784.273 387.165 798.353C389.735 794.213 393.395 789.593 397.125 789.063C398.895 788.813 400.305 789.473 401.095 790.923C403.325 795.033 400.205 805.493 391.135 815.863L389.775 814.673C398.695 804.483 401.155 794.833 399.515 791.783C399.095 791.003 398.415 790.703 397.395 790.853C392.595 791.533 386.995 801.863 385.235 805.783L383.535 805.173C383.565 805.053 386.955 792.943 389.225 779.683C392.195 762.343 391.975 750.943 388.565 746.723C387.515 745.423 386.175 744.833 384.455 744.933C382.585 745.043 381.005 745.913 379.635 747.583C369.915 759.453 376.155 804.833 376.215 805.293L374.455 805.693C371.225 795.583 361.225 769.183 353.925 768.343C352.525 768.183 351.275 769.073 350.085 771.063C340.875 786.483 368.125 814.353 368.405 814.633L367.115 815.893Z" fill="#131F2D"/>
<path d="M165.235 777.393C165.235 777.393 133.375 745.163 144.345 726.803C155.305 708.443 173.805 766.233 173.805 766.233C173.805 766.233 164.215 697.903 184.085 696.713C203.955 695.523 184.085 766.233 184.085 766.233C184.085 766.233 191.445 749.743 198.645 748.723C205.835 747.703 203.785 762.703 190.935 777.383H165.235V777.393Z" fill="#EAEAEA"/>
<path d="M167.525 778.213C167.435 778.123 158.315 768.853 150.855 757.143C140.675 741.163 138.255 728.473 143.655 719.433C145.675 716.053 148.095 714.503 150.845 714.823C160.195 715.893 170.445 740.103 175.725 754.453C175.165 748.713 174.585 741.163 174.365 733.213C173.745 710.663 176.255 695.783 181.805 689.003C183.965 686.363 186.605 684.933 189.655 684.753C192.625 684.573 195.055 685.643 196.885 687.913C205.765 698.923 197.705 737.603 193.275 755.693C196.585 750.373 201.275 744.433 206.075 743.753C208.345 743.423 210.155 744.283 211.165 746.143C214.025 751.423 210.025 764.853 198.365 778.173L196.615 776.643C208.075 763.553 211.235 751.163 209.115 747.253C208.575 746.253 207.705 745.873 206.385 746.053C200.215 746.923 193.025 760.193 190.775 765.233L188.595 764.443C188.635 764.293 192.985 748.743 195.905 731.703C199.725 709.423 199.435 694.783 195.065 689.363C193.715 687.683 191.985 686.933 189.785 687.063C187.385 687.203 185.355 688.323 183.595 690.473C171.115 705.723 179.125 764.013 179.205 764.593L176.945 765.113C172.785 752.133 159.955 718.213 150.565 717.133C148.775 716.923 147.155 718.073 145.635 720.623C133.805 740.433 168.805 776.233 169.165 776.583L167.525 778.213Z" fill="#131F2D"/>
<path d="M893.105 813.763C893.105 813.763 869.345 789.723 877.525 776.033C885.705 762.343 899.495 805.443 899.495 805.443C899.495 805.443 892.345 754.483 907.155 753.593C921.975 752.703 907.155 805.443 907.155 805.443C907.155 805.443 912.645 793.143 918.015 792.383C923.385 791.623 921.845 802.813 912.265 813.763H893.105V813.763Z" fill="#EAEAEA"/>
<path d="M894.815 814.363C894.745 814.293 887.945 807.383 882.385 798.643C874.795 786.723 872.985 777.263 877.015 770.513C878.515 767.993 880.315 766.833 882.375 767.073C889.355 767.873 896.995 785.933 900.935 796.623C900.525 792.343 900.085 786.713 899.925 780.783C899.465 763.963 901.335 752.873 905.475 747.813C907.085 745.843 909.055 744.773 911.325 744.643C913.535 744.513 915.355 745.303 916.715 746.993C923.335 755.213 917.325 784.053 914.025 797.553C916.495 793.583 919.995 789.153 923.565 788.653C925.265 788.413 926.605 789.043 927.365 790.433C929.495 794.373 926.515 804.383 917.815 814.323L916.515 813.183C925.055 803.423 927.425 794.173 925.845 791.263C925.435 790.513 924.785 790.233 923.815 790.373C919.215 791.023 913.845 800.923 912.165 804.683L910.545 804.093C910.575 803.973 913.825 792.383 915.995 779.673C918.845 763.063 918.625 752.143 915.365 748.093C914.355 746.843 913.075 746.293 911.425 746.383C909.635 746.493 908.125 747.323 906.815 748.923C897.505 760.293 903.485 803.773 903.545 804.203L901.865 804.583C898.765 794.903 889.185 769.603 882.195 768.803C880.855 768.643 879.655 769.503 878.515 771.413C869.685 786.193 895.795 812.883 896.065 813.153L894.815 814.363Z" fill="#131F2D"/>
<path d="M1015.76 880.603C1015.76 880.603 991.085 855.642 999.575 841.422C1008.06 827.202 1022.4 871.963 1022.4 871.963C1022.4 871.963 1014.97 819.033 1030.36 818.113C1045.75 817.193 1030.36 871.963 1030.36 871.963C1030.36 871.963 1036.06 859.192 1041.64 858.402C1047.21 857.612 1045.62 869.233 1035.67 880.603H1015.76Z" fill="#EAEAEA"/>
<path d="M1017.54 881.233C1017.47 881.163 1010.4 873.983 1004.62 864.913C996.735 852.533 994.865 842.703 999.045 835.703C1000.6 833.093 1002.47 831.883 1004.61 832.133C1008.86 832.623 1013.87 839.293 1019.47 851.963C1021.18 855.833 1022.68 859.693 1023.87 862.893C1022.51 849.063 1020.93 821.493 1028.59 812.133C1030.26 810.083 1032.32 808.973 1034.68 808.833C1036.98 808.703 1038.86 809.523 1040.28 811.283C1047.15 819.813 1040.91 849.773 1037.49 863.783C1040.05 859.663 1043.69 855.063 1047.4 854.533C1049.16 854.283 1050.55 854.943 1051.33 856.383C1053.55 860.473 1050.45 870.873 1041.43 881.193L1040.07 880.013C1048.94 869.873 1051.41 860.273 1049.77 857.243C1049.35 856.463 1048.68 856.173 1047.66 856.313C1042.88 856.993 1037.3 867.263 1035.56 871.173L1033.87 870.563C1033.9 870.443 1037.28 858.403 1039.54 845.203C1042.5 827.953 1042.26 816.613 1038.88 812.413C1037.83 811.113 1036.49 810.533 1034.79 810.633C1032.93 810.743 1031.37 811.603 1030.01 813.273C1020.34 825.083 1026.54 870.233 1026.6 870.683L1024.85 871.083C1021.63 861.033 1011.7 834.753 1004.43 833.923C1003.04 833.763 1001.78 834.653 1000.6 836.633C991.445 851.973 1018.55 879.703 1018.82 879.983L1017.54 881.233Z" fill="#131F2D"/>
<path d="M642.175 885.733C642.175 885.733 615.715 858.963 624.815 843.713C633.915 828.463 649.285 876.463 649.285 876.463C649.285 876.463 641.315 819.703 657.825 818.723C674.325 817.733 657.825 876.463 657.825 876.463C657.825 876.463 663.945 862.773 669.915 861.923C675.885 861.073 674.185 873.533 663.515 885.733H642.175Z" fill="#EAEAEA"/>
<path d="M644.075 886.413C643.995 886.333 636.425 878.633 630.235 868.913C621.775 855.633 619.765 845.093 624.255 837.583C625.935 834.783 627.945 833.493 630.225 833.753C634.785 834.273 640.145 841.433 646.155 855.013C647.985 859.163 649.615 863.303 650.885 866.733C649.425 851.903 647.735 822.333 655.945 812.303C657.745 810.113 659.935 808.923 662.465 808.773C664.935 808.623 666.945 809.503 668.475 811.393C675.845 820.543 669.155 852.663 665.475 867.693C668.225 863.273 672.125 858.343 676.105 857.773C677.995 857.503 679.495 858.213 680.335 859.763C682.715 864.153 679.385 875.303 669.705 886.373L668.255 885.103C677.775 874.233 680.405 863.933 678.645 860.683C678.195 859.853 677.475 859.533 676.385 859.683C671.255 860.413 665.285 871.433 663.415 875.613L661.605 874.963C661.645 874.833 665.255 861.923 667.675 847.773C670.845 829.273 670.605 817.113 666.975 812.603C665.855 811.213 664.425 810.593 662.585 810.693C660.585 810.813 658.905 811.743 657.445 813.523C647.075 826.183 653.735 874.603 653.805 875.093L651.935 875.523C648.485 864.743 637.815 836.563 630.025 835.673C628.535 835.503 627.195 836.453 625.925 838.573C616.095 855.033 645.175 884.763 645.465 885.063L644.075 886.413Z" fill="#131F2D"/>
<path d="M1290.63 745.973C1290.63 745.973 1277.18 732.363 1281.81 724.613C1286.44 716.863 1294.26 741.262 1294.26 741.262C1294.26 741.262 1290.2 712.412 1298.59 711.912C1306.98 711.412 1298.59 741.262 1298.59 741.262C1298.59 741.262 1301.71 734.303 1304.75 733.873C1307.79 733.443 1306.92 739.773 1301.5 745.973H1290.63Z" fill="#EAEAEA"/>
<path d="M1291.6 746.313C1291.56 746.273 1287.71 742.363 1284.56 737.413C1280.26 730.663 1279.25 725.303 1281.53 721.493C1282.38 720.063 1283.39 719.413 1284.56 719.543C1286.88 719.813 1289.61 723.443 1292.67 730.353C1293.6 732.463 1294.42 734.573 1295.06 736.313C1294.32 728.773 1293.46 713.742 1297.63 708.642C1298.54 707.522 1299.67 706.923 1300.95 706.843C1302.2 706.763 1303.23 707.213 1304 708.173C1307.75 712.823 1304.35 729.153 1302.48 736.793C1303.88 734.543 1305.85 732.043 1307.87 731.753C1308.83 731.613 1309.6 731.972 1310.03 732.762C1311.24 734.992 1309.54 740.663 1304.62 746.283L1303.88 745.633C1308.72 740.103 1310.06 734.873 1309.17 733.223C1308.94 732.803 1308.58 732.643 1308.02 732.713C1305.42 733.083 1302.38 738.683 1301.43 740.813L1300.51 740.483C1300.58 740.223 1307.77 714.393 1303.24 708.783C1302.67 708.073 1301.94 707.763 1301.01 707.813C1299.99 707.873 1299.13 708.343 1298.39 709.253C1293.12 715.693 1296.5 740.303 1296.54 740.553L1295.59 740.772C1293.84 735.292 1288.42 720.972 1284.46 720.512C1283.7 720.422 1283.01 720.913 1282.37 721.993C1277.38 730.363 1292.15 745.473 1292.3 745.623L1291.6 746.313Z" fill="#131F2D"/>
<path d="M1034.55 488.693C1034.55 488.693 1016.88 514.183 994.365 516.853C981.015 518.433 957.555 504.223 957.555 504.223L1022.35 459.333L1034.55 488.693Z" fill="#FF7955"/>
<path d="M1208.02 819.693C1208.02 819.693 1207.35 832.613 1198.5 836.023C1189.66 839.433 1164.23 842.043 1173.47 850.603C1178.77 855.513 1204.46 853.123 1211.69 853.323C1218.92 853.513 1225.62 856.853 1231.13 852.153C1237.18 846.993 1231.99 820.333 1231.99 820.333C1231.99 820.333 1225.65 823.413 1220.05 823.113C1211.96 822.693 1208.02 819.693 1208.02 819.693Z" fill="#131F2D"/>
<path d="M1153.42 449.143C1155.11 475.963 1141.45 553.893 1143.67 608.583C1148.16 719.043 1189 826.543 1214.78 825.983L1222.25 826.483C1237.28 827.493 1249.84 814.903 1249.15 799.503C1249.15 799.503 1236.13 693.823 1234.05 661.953C1229.84 597.623 1260.49 481.583 1260.49 481.583C1260.49 481.583 1150.65 405.143 1153.42 449.143Z" fill="#364154"/>
<path d="M1283.36 805.643C1283.36 805.643 1282.69 818.563 1273.84 821.973C1265 825.383 1239.56 827.993 1248.8 836.553C1254.1 841.463 1279.8 839.073 1287.03 839.273C1294.26 839.463 1300.96 842.803 1306.47 838.103C1312.52 832.943 1307.33 806.283 1307.33 806.283C1307.33 806.283 1301 809.363 1295.4 809.063C1287.32 808.643 1283.36 805.643 1283.36 805.643Z" fill="#131F2D"/>
<path d="M1228.77 435.083C1230.46 461.903 1216.8 539.833 1219.02 594.523C1223.51 704.983 1264.35 812.483 1290.13 811.923L1297.6 812.423C1312.63 813.433 1325.19 800.833 1324.5 785.443C1324.5 785.443 1311.48 679.763 1309.4 647.893C1307.14 613.363 1314.93 563.913 1322.63 525.523C1330.29 487.333 1317.05 430.203 1281.84 413.543C1256.73 401.673 1227.48 414.583 1228.77 435.083Z" fill="#364154"/>
<path d="M1343.27 336.053C1308.59 266.323 1211.35 253.303 1211.35 253.303C1211.35 253.303 1273.67 413.763 1286.29 404.113C1307.86 387.613 1341.1 376.173 1343.27 336.053Z" fill="#158EF7"/>
<path d="M1480.25 252.253L1517.55 239.273C1520.65 238.193 1524.64 240.753 1526.65 245.133L1528.32 248.803C1530.43 253.393 1529.61 258.273 1526.49 259.703L1491.12 275.943L1480.25 252.253Z" fill="#131F2D"/>
<path d="M852.405 520.273C852.405 520.273 842.445 526.973 843.875 529.073C846.185 532.453 856.105 528.333 856.105 528.333L852.405 520.273Z" fill="#131F2D"/>
<path d="M1254.11 321.103C1252.06 321.103 1250.08 319.973 1249.09 318.023C1247.68 315.253 1248.79 311.863 1251.56 310.453L1428.33 220.713C1434.78 217.443 1442.68 218.893 1447.54 224.253C1447.64 224.363 1447.74 224.483 1447.84 224.603L1462.2 243.293C1464.09 245.763 1463.62 249.293 1461.15 251.183C1458.68 253.073 1455.16 252.613 1453.27 250.143L1439.08 231.673C1437.61 230.173 1435.33 229.783 1433.44 230.743L1256.67 320.483C1255.85 320.903 1254.97 321.103 1254.11 321.103Z" fill="#131F2D"/>
<path d="M929.295 528.413L1497.61 293.103C1503.04 290.543 1505.75 270.003 1494.72 251.473L1488.54 238.033C1486.05 232.613 1479.7 230.183 1474.23 232.563L908.045 470.953L929.295 528.413Z" fill="#364154"/>
<path d="M1392.62 266.913C1392.62 266.913 1417.19 293.473 1413.56 327.903L1372.17 345.043C1372.17 345.043 1373.6 309.593 1349.74 284.973L1392.62 266.913Z" fill="#131F2D"/>
<path d="M852.425 520.323L855.815 527.693C856.755 529.753 858.855 531.043 861.175 531.003L920.865 529.983C929.595 529.833 937.355 523.883 939.365 515.503C940.835 509.373 940.545 501.513 935.435 492.373C928.895 480.683 922.615 474.953 917.425 472.283C911.925 469.453 905.105 470.463 900.395 474.623L853.335 516.193C852.155 517.253 851.785 518.923 852.425 520.323Z" fill="#657285"/>
<path d="M1424.53 306.803C1424.19 306.803 1423.86 306.593 1423.73 306.263C1423.55 305.823 1423.77 305.313 1424.21 305.133L1488.35 279.343C1488.79 279.163 1489.31 279.383 1489.49 279.823C1489.67 280.263 1489.45 280.773 1489.01 280.953L1424.85 306.743C1424.74 306.783 1424.64 306.803 1424.53 306.803Z" fill="#131F2D"/>
<path d="M1169.58 252.143L1158.47 237.503L1155.24 233.243L1136.22 208.173L1144.52 236.713L1149.51 253.843L1151.08 259.263C1152.15 262.943 1150.04 264.513 1148.21 268.653C1147.47 270.323 1142.58 280.623 1152.29 281.223C1164.39 281.973 1182.01 268.643 1186.62 257.433C1186.55 257.433 1173.18 256.873 1169.58 252.143Z" fill="#FF7955"/>
<path d="M1144.85 249.989C1160.49 248.199 1171.54 232.492 1169.53 214.906C1167.51 197.32 1153.2 184.516 1137.56 186.306C1121.91 188.096 1110.86 203.804 1112.88 221.389C1114.89 238.975 1129.2 251.78 1144.85 249.989Z" fill="#FF7955"/>
<path d="M1122.43 212.843C1107.15 218.633 1096.83 212.893 1094.05 205.273C1090.48 195.513 1094.2 184.533 1103.21 185.553C1112.22 186.573 1105.84 178.733 1112.99 175.253C1126.35 168.733 1132.1 177.063 1143.67 173.643C1158.94 169.123 1184.04 186.603 1177.18 207.913C1177.18 207.903 1134.5 208.273 1122.43 212.843Z" fill="#131F2D"/>
<path d="M1105.29 207.593C1105.29 207.593 1126.83 216.763 1127.47 225.813C1128.11 234.863 1129.77 237.933 1140.93 239.093C1152.09 240.253 1146 250.343 1159.04 246.503C1172.08 242.663 1183.06 223.193 1175.18 199.993C1170.79 187.053 1159.91 181.303 1159.91 181.303L1105.29 207.593Z" fill="#131F2D"/>
<path d="M1119 228.283C1120.04 225.183 1123.22 223.273 1126.12 224.023C1129.02 224.773 1130.54 227.893 1129.51 230.993C1128.48 234.093 1125.27 236.003 1122.37 235.253C1119.47 234.503 1117.96 231.383 1119 228.283Z" fill="#FF7955"/>
<path d="M1185.42 212.223C1185.28 212.223 1185.15 212.153 1185.08 212.033C1183.27 209.163 1179.45 208.463 1179.41 208.453C1179.19 208.413 1179.04 208.203 1179.08 207.983C1179.12 207.763 1179.33 207.613 1179.55 207.653C1179.72 207.683 1183.77 208.423 1185.77 211.593C1185.89 211.783 1185.83 212.033 1185.64 212.153C1185.57 212.203 1185.49 212.223 1185.42 212.223Z" fill="#131F2D"/>
<path d="M1178.87 206.663C1178.71 206.663 1178.56 206.563 1178.49 206.413C1178.41 206.203 1178.51 205.973 1178.71 205.883C1178.75 205.863 1182.84 204.163 1182.42 200.963C1182.39 200.743 1182.55 200.533 1182.77 200.513C1182.99 200.483 1183.2 200.643 1183.22 200.863C1183.72 204.683 1179.2 206.563 1179.01 206.643C1178.97 206.653 1178.92 206.663 1178.87 206.663Z" fill="#131F2D"/>
<path d="M1093.72 185.023C1093.59 185.023 1093.47 184.963 1093.39 184.853C1093.26 184.673 1093.3 184.413 1093.49 184.283C1096.7 182.003 1098.88 182.543 1100.98 183.063C1102.05 183.333 1103.15 183.603 1104.44 183.533C1105.13 183.493 1105.65 183.223 1106.03 182.723C1107.33 180.993 1106.48 177.193 1106.47 177.163C1106.42 176.943 1106.56 176.723 1106.77 176.673C1106.99 176.623 1107.21 176.763 1107.26 176.983C1107.3 177.153 1108.2 181.193 1106.67 183.213C1106.15 183.913 1105.41 184.293 1104.48 184.343C1103.08 184.423 1101.91 184.133 1100.78 183.853C1098.68 183.333 1096.87 182.873 1093.96 184.943C1093.89 185.003 1093.81 185.023 1093.72 185.023Z" fill="#131F2D"/>
<path d="M1137.43 173.563C1133.86 173.563 1131.04 172.413 1130.86 172.343C1130.65 172.253 1130.56 172.023 1130.64 171.813C1130.73 171.603 1130.96 171.513 1131.17 171.593C1131.24 171.623 1137.8 174.283 1143.42 171.383C1143.62 171.283 1143.86 171.363 1143.97 171.553C1144.07 171.753 1143.99 171.993 1143.8 172.103C1141.65 173.203 1139.42 173.563 1137.43 173.563Z" fill="#131F2D"/>
<path d="M1124.85 235.473C1124.74 235.473 1124.67 235.393 1124.66 235.283C1124.66 235.173 1124.73 235.083 1124.84 235.083C1125 235.083 1128.69 234.933 1129.57 229.733C1129.59 229.623 1129.69 229.553 1129.8 229.573C1129.91 229.593 1129.99 229.693 1129.97 229.793C1129.04 235.323 1124.9 235.473 1124.85 235.473C1124.86 235.473 1124.86 235.473 1124.85 235.473Z" fill="#131F2D"/>
<path d="M1148.78 514.033C1173.82 505.733 1262.8 473.983 1320.4 468.753C1320.4 468.753 1324.73 463.823 1321.15 457.673C1310.5 439.363 1236.58 452.383 1236.58 452.383L1176.81 474.323L1159.64 484.553L1144.27 509.163C1144.27 509.153 1145.18 515.223 1148.78 514.033Z" fill="#131F2D"/>
<path d="M1248.13 276.383C1248.13 276.383 1223.85 236.713 1163.44 257.213C1058.17 292.943 1107.68 369.343 1144.26 509.153C1144.26 509.153 1216.29 471.413 1321.15 457.653C1321.15 457.653 1305.62 380.483 1272.06 322.173C1263.2 306.793 1257.85 289.083 1248.13 276.383Z" fill="#158EF7"/>
<path d="M1151.32 261.883C1151.32 261.883 1117.71 273.833 1100.65 306.063C1083.58 338.283 1089.28 364.443 1070.99 394.603C1057.5 416.833 1084.67 446.943 1104.58 440.733C1124.5 434.523 1137.34 414.193 1137.34 414.193L1151.32 261.883Z" fill="#158EF7"/>
<path d="M1312.22 423.513C1295.91 363.723 1259.62 297.373 1259.26 296.713L1259.95 296.333C1260.32 296.993 1296.64 363.433 1312.98 423.313L1312.22 423.513Z" fill="#131F2D"/>
<path d="M1032.29 484.323C1032.29 484.323 1017.71 474.653 1003.31 485.263C998.155 489.063 984.025 483.883 986.235 489.203C988.445 494.523 1004.89 501.373 1003.54 506.283C1002.18 511.193 1032.29 484.323 1032.29 484.323Z" fill="#FF7955"/>
<path d="M1239.75 725.553C1228.79 677.743 1237.15 627.863 1246.09 594.443C1255.78 558.243 1268.22 533.003 1268.34 532.753L1269.56 533.363C1269.44 533.613 1257.05 558.753 1247.4 594.823C1238.5 628.083 1230.18 677.713 1241.08 725.243L1239.75 725.553Z" fill="#131F2D"/>
<path d="M1025.64 501.803C1040.15 508.503 1135.52 466.033 1146.11 417.973C1157.37 366.863 1070.98 394.603 1070.98 394.603L1011.8 479.963C1011.81 479.963 1010.94 495.013 1025.64 501.803Z" fill="#158EF7"/>
<path d="M1127.25 450.393L1126.6 449.933C1150.65 416.443 1158.93 367.483 1159.01 366.993L1159.78 367.123C1159.71 367.623 1151.41 416.763 1127.25 450.393Z" fill="#131F2D"/>
<path d="M768.955 565.813C766.735 565.813 764.675 565.543 762.825 564.973C758.555 563.633 755.615 560.753 754.095 556.413C751.005 547.583 755.035 533.353 765.135 517.373C774.785 502.103 787.955 488.523 800.345 481.053C814.265 472.663 826.235 472.683 834.045 481.093C839.875 487.373 842.195 494.203 840.945 501.413C839.465 509.963 833.085 518.783 821.965 527.623C813.795 534.123 806.165 538.123 805.845 538.283C805.135 538.653 804.265 538.373 803.895 537.673C803.525 536.963 803.805 536.093 804.505 535.723C804.805 535.563 834.845 519.723 838.095 500.913C839.175 494.643 837.105 488.633 831.925 483.053C823.235 473.693 810.765 478.143 801.835 483.523C775.835 499.193 751.015 538.853 756.815 555.453C758.035 558.943 760.285 561.153 763.685 562.213C784.205 568.623 835.965 531.293 836.485 530.913C837.135 530.443 838.035 530.593 838.505 531.233C838.975 531.883 838.835 532.783 838.185 533.253C836.195 534.693 793.035 565.813 768.955 565.813Z" fill="#131F2D"/>
</g>
<defs>
<clipPath id="clip0_35_231">
<rect width="1575.27" height="912.243" fill="white"/>
</clipPath>
</defs>
</svg>
